<?xml version="1.0" encoding="UTF-8" standalone="no"?>
<!-- Created with Inkscape (http://www.inkscape.org/) -->

<svg
   xmlns:dc="http://purl.org/dc/elements/1.1/"
   xmlns:cc="http://creativecommons.org/ns#"
   xmlns:rdf="http://www.w3.org/1999/02/22-rdf-syntax-ns#"
   xmlns:svg="http://www.w3.org/2000/svg"
   xmlns="http://www.w3.org/2000/svg"
   xmlns:sodipodi="http://sodipodi.sourceforge.net/DTD/sodipodi-0.dtd"
   xmlns:inkscape="http://www.inkscape.org/namespaces/inkscape"
   version="1.1"
   id="svg6231"
   xml:space="preserve"
   width="800"
   height="800"
   viewBox="0 0 800 800"
   sodipodi:docname="shamrock-clip-art-publicdomainvectors.org.svg"
   inkscape:version="0.92.4 (5da689c313, 2019-01-14)"><metadata
     id="metadata6237"><rdf:RDF><cc:Work
         rdf:about=""><dc:format>image/svg+xml</dc:format><dc:type
           rdf:resource="http://purl.org/dc/dcmitype/StillImage" /><dc:title></dc:title></cc:Work></rdf:RDF></metadata><defs
     id="defs6235"><clipPath
       clipPathUnits="userSpaceOnUse"
       id="clipPath6247"><path
         d="M 0,600 H 600 V 0 H 0 Z"
         id="path6245"
         inkscape:connector-curvature="0" /></clipPath></defs><sodipodi:namedview
     pagecolor="#ffffff"
     bordercolor="#666666"
     borderopacity="1"
     objecttolerance="10"
     gridtolerance="10"
     guidetolerance="10"
     inkscape:pageopacity="0"
     inkscape:pageshadow="2"
     inkscape:window-width="724"
     inkscape:window-height="480"
     id="namedview6233"
     showgrid="false"
     inkscape:zoom="0.295"
     inkscape:cx="400"
     inkscape:cy="400"
     inkscape:window-x="0"
     inkscape:window-y="0"
     inkscape:window-maximized="0"
     inkscape:current-layer="g6239" /><g
     id="g6239"
     inkscape:groupmode="layer"
     inkscape:label="shamrock-clip-art-publicdomainvectors.org"
     transform="matrix(1.3333333,0,0,-1.3333333,0,800)"><g
       id="g6241"><g
         id="g6243"
         clip-path="url(#clipPath6247)"><path
           d="m 471.902,307.087 c -0.621,0.057 -1.536,0.051 -2.681,0.092 -2.308,0.031 -5.596,-0.048 -9.533,-0.256 -3.938,-0.225 -8.524,-0.588 -13.427,-1.06 -2.454,-0.216 -4.981,-0.541 -7.552,-0.802 -2.569,-0.294 -5.178,-0.607 -7.776,-0.979 -2.608,-0.321 -5.204,-0.703 -7.757,-1.098 -2.549,-0.426 -5.065,-0.784 -7.482,-1.24 -4.836,-0.881 -9.33,-1.807 -13.121,-2.811 -1.888,-0.522 -3.626,-1.003 -5.123,-1.537 -1.507,-0.513 -2.797,-1.033 -3.824,-1.529 -1.023,-0.501 -1.833,-0.926 -2.323,-1.292 -0.509,-0.357 -0.78,-0.547 -0.78,-0.547 0,0 0.231,0.238 0.666,0.685 0.211,0.236 0.499,0.492 0.86,0.772 0.349,0.291 0.753,0.636 1.251,0.943 0.968,0.667 2.192,1.415 3.666,2.12 1.459,0.746 3.155,1.463 5.035,2.172 1.878,0.706 3.937,1.404 6.143,2.033 2.201,0.64 4.536,1.274 6.974,1.809 2.437,0.544 4.958,1.099 7.541,1.532 2.581,0.438 5.208,0.867 7.842,1.223 5.275,0.673 10.57,1.185 15.551,1.407 2.487,0.15 4.901,0.174 7.185,0.194 2.285,0.026 4.448,-0.04 6.443,-0.126 3.99,-0.176 7.305,-0.575 9.602,-0.971 1.154,-0.204 2.045,-0.4 2.648,-0.558 0.601,-0.15 0.923,-0.23 0.923,-0.23 0,0 -0.331,0.019 -0.951,0.054 m -9.488,-17.207 c -0.89,0.067 -1.966,-0.018 -3.183,10e-4 -1.212,0.019 -2.598,-0.074 -4.1,-0.116 -1.502,-0.02 -3.132,-0.199 -4.847,-0.269 -1.716,-0.141 -3.524,-0.287 -5.394,-0.44 -3.737,-0.402 -7.724,-0.765 -11.685,-1.361 -1.993,-0.22 -3.969,-0.557 -5.923,-0.826 -1.934,-0.367 -3.873,-0.565 -5.715,-0.932 -1.849,-0.329 -3.641,-0.629 -5.331,-0.964 -1.698,-0.306 -3.28,-0.674 -4.763,-0.956 -1.47,-0.337 -2.816,-0.643 -4.01,-0.916 -1.189,-0.312 -2.224,-0.582 -3.077,-0.805 -1.679,-0.524 -2.669,-0.802 -2.669,-0.802 0,0 0.864,0.525 2.43,1.406 1.591,0.809 3.917,1.892 6.808,2.918 1.447,0.489 3.013,1.074 4.706,1.523 1.68,0.505 3.464,1 5.331,1.414 1.86,0.455 3.795,0.849 5.768,1.224 1.982,0.311 3.987,0.698 6.011,0.951 2.023,0.258 4.052,0.478 6.052,0.647 1.995,0.224 3.981,0.23 5.889,0.343 1.915,0.054 3.767,0.053 5.52,0.005 1.759,-0.069 3.415,-0.112 4.945,-0.292 1.526,-0.139 2.922,-0.281 4.16,-0.514 1.234,-0.207 2.312,-0.36 3.167,-0.599 1.726,-0.429 2.707,-0.707 2.707,-0.707 0,0 -1.022,0.004 -2.797,0.067 m -10.276,-16.529 c -0.562,0.016 -1.247,-0.008 -2.008,-0.054 -0.767,-0.052 -1.603,-0.056 -2.544,-0.148 -1.87,-0.147 -4.033,-0.336 -6.345,-0.652 -1.157,-0.11 -2.343,-0.344 -3.553,-0.503 -1.21,-0.196 -2.435,-0.393 -3.664,-0.592 -1.227,-0.219 -2.453,-0.44 -3.66,-0.657 -1.206,-0.23 -2.4,-0.424 -3.548,-0.665 -2.306,-0.465 -4.461,-0.899 -6.306,-1.271 -3.698,-0.759 -6.211,-1.338 -6.211,-1.338 0,0 0.133,0.093 0.38,0.265 0.253,0.161 0.607,0.452 1.097,0.724 0.969,0.58 2.387,1.377 4.161,2.134 0.877,0.407 1.85,0.788 2.887,1.176 1.042,0.365 2.134,0.784 3.297,1.101 1.158,0.335 2.349,0.704 3.588,0.975 1.228,0.318 2.501,0.526 3.765,0.778 2.547,0.409 5.118,0.696 7.548,0.734 1.212,0.072 2.389,0.017 3.502,-0.045 1.113,-0.012 2.164,-0.179 3.127,-0.296 0.962,-0.087 1.859,-0.328 2.629,-0.488 0.783,-0.144 1.433,-0.351 1.961,-0.54 1.066,-0.361 1.667,-0.596 1.667,-0.596 0,0 -0.646,-0.035 -1.77,-0.042 m -37.649,-27.17 c -0.241,-1.868 -0.524,-4.045 -0.827,-6.378 -0.158,-1.163 -0.268,-2.369 -0.416,-3.587 -0.132,-1.218 -0.266,-2.456 -0.399,-3.697 -0.113,-1.237 -0.224,-2.474 -0.334,-3.694 -0.075,-1.22 -0.225,-2.42 -0.256,-3.58 -0.152,-2.327 -0.188,-4.5 -0.207,-6.374 -0.025,-0.947 0.03,-1.78 0.032,-2.552 0.009,-0.757 0.03,-1.444 0.086,-2.005 0.072,-1.122 0.083,-1.768 0.083,-1.768 0,0 -0.276,0.585 -0.712,1.622 -0.225,0.515 -0.476,1.145 -0.676,1.917 -0.217,0.759 -0.516,1.636 -0.67,2.588 -0.184,0.951 -0.425,1.992 -0.516,3.098 -0.136,1.107 -0.276,2.28 -0.288,3.491 -0.132,2.427 -0.025,5.011 0.209,7.582 0.16,1.278 0.28,2.563 0.512,3.809 0.181,1.255 0.466,2.471 0.72,3.649 0.236,1.182 0.577,2.301 0.868,3.365 0.315,1.062 0.625,2.057 0.972,2.962 0.631,1.823 1.326,3.291 1.836,4.298 0.24,0.511 0.503,0.882 0.648,1.147 0.153,0.259 0.235,0.398 0.235,0.398 0,0 -0.401,-2.548 -0.9,-6.291 m -13.733,24.5 c -0.479,0.779 -1.354,1.799 -2.394,3.139 -1.102,1.293 -2.455,2.846 -4.118,4.535 -1.648,1.696 -3.568,3.55 -5.681,5.554 -2.122,1.997 -4.471,4.106 -6.961,6.329 -2.526,2.188 -5.19,4.491 -7.947,6.876 -2.799,2.34 -5.689,4.756 -8.629,7.211 -2.948,2.445 -5.962,4.905 -8.997,7.344 -6.026,4.931 -12.134,9.767 -17.832,14.34 -5.712,4.561 -11.042,8.818 -15.61,12.467 -4.559,3.676 -8.356,6.739 -11.014,8.881 -2.649,2.162 -4.162,3.395 -4.162,3.395 0,0 1.671,-1.014 4.533,-2.883 2.844,-1.895 6.952,-4.542 11.757,-7.894 4.822,-3.333 10.379,-7.314 16.247,-11.695 2.927,-2.205 5.97,-4.455 8.99,-6.835 3.018,-2.389 6.082,-4.816 9.147,-7.24 3.028,-2.472 6.027,-4.981 8.97,-7.466 2.947,-2.476 5.762,-5.017 8.496,-7.463 5.441,-4.925 10.351,-9.72 14.344,-14.047 4.018,-4.297 7.028,-8.205 8.979,-11.03 0.939,-1.439 1.641,-2.592 2.035,-3.425 0.419,-0.815 0.644,-1.249 0.644,-1.249 0,0 -0.278,0.403 -0.797,1.156 m -0.847,-9.359 c -0.164,-0.866 -0.362,-1.918 -0.588,-3.125 -0.187,-1.209 -0.401,-2.575 -0.633,-4.062 -0.178,-1.5 -0.434,-3.104 -0.622,-4.821 -0.216,-1.709 -0.39,-3.517 -0.588,-5.384 -0.239,-1.863 -0.3,-3.81 -0.532,-5.767 -0.132,-1.968 -0.33,-3.961 -0.41,-5.962 -0.316,-3.996 -0.402,-7.998 -0.541,-11.751 -0.021,-1.877 -0.043,-3.691 -0.061,-5.413 0.046,-1.715 -0.014,-3.352 0.067,-4.851 0.065,-1.501 0.067,-2.89 0.173,-4.099 0.101,-1.214 0.094,-2.289 0.223,-3.173 0.184,-1.769 0.261,-2.786 0.261,-2.786 0,0 -0.343,0.96 -0.893,2.649 -0.299,0.836 -0.526,1.901 -0.82,3.117 -0.317,1.219 -0.558,2.601 -0.801,4.116 -0.287,1.511 -0.448,3.161 -0.638,4.909 -0.17,1.747 -0.302,3.593 -0.379,5.508 -0.023,1.911 -0.155,3.891 -0.07,5.897 0.027,2.007 0.107,4.045 0.222,6.083 0.112,2.035 0.357,4.063 0.529,6.061 0.237,1.995 0.495,3.954 0.818,5.839 0.283,1.891 0.652,3.705 1.036,5.418 0.333,1.719 0.807,3.32 1.192,4.798 0.822,2.956 1.74,5.353 2.434,6.997 0.774,1.622 1.235,2.521 1.235,2.521 0,0 -0.209,-1.009 -0.614,-2.719 m -13.427,17.972 c -0.33,-0.518 -0.697,-1.354 -1.124,-2.409 -0.422,-1.06 -0.851,-2.383 -1.258,-3.921 -0.427,-1.531 -0.787,-3.299 -1.175,-5.218 -0.737,-3.852 -1.349,-8.401 -1.89,-13.288 -0.286,-2.44 -0.468,-4.979 -0.716,-7.55 -0.215,-2.573 -0.413,-5.189 -0.553,-7.814 -0.189,-2.617 -0.321,-5.243 -0.433,-7.826 -0.082,-2.582 -0.229,-5.125 -0.272,-7.59 -0.129,-4.923 -0.172,-9.525 -0.12,-13.468 0.065,-3.943 0.22,-7.23 0.413,-9.529 0.119,-1.139 0.178,-2.053 0.278,-2.668 0.079,-0.617 0.12,-0.945 0.12,-0.945 0,0 -0.104,0.315 -0.293,0.907 -0.2,0.588 -0.459,1.463 -0.744,2.6 -0.556,2.263 -1.185,5.545 -1.636,9.512 -0.229,1.982 -0.444,4.137 -0.578,6.418 -0.143,2.28 -0.286,4.69 -0.31,7.181 -0.126,4.987 0.015,10.301 0.318,15.612 0.368,5.306 0.873,10.605 1.677,15.539 0.361,2.473 0.833,4.844 1.317,7.084 0.471,2.244 1.024,4.348 1.6,6.27 0.574,1.924 1.171,3.668 1.814,5.176 0.599,1.518 1.261,2.792 1.856,3.805 0.274,0.518 0.589,0.944 0.854,1.316 0.254,0.376 0.49,0.682 0.712,0.908 0.414,0.466 0.635,0.713 0.635,0.713 0,0 -0.17,-0.283 -0.492,-0.815 m -12.889,11.099 c -0.255,-0.25 -0.524,-0.604 -0.814,-1.038 -0.3,-0.426 -0.658,-0.897 -0.974,-1.489 -0.344,-0.571 -0.713,-1.205 -1.041,-1.942 -0.362,-0.715 -0.721,-1.504 -1.062,-2.368 -0.719,-1.708 -1.363,-3.707 -2.047,-5.883 -0.62,-2.204 -1.259,-4.597 -1.824,-7.161 -0.588,-2.556 -1.072,-5.284 -1.595,-8.102 -0.938,-5.653 -1.786,-11.719 -2.351,-17.815 -0.304,-3.046 -0.58,-6.098 -0.754,-9.106 -0.187,-3.01 -0.362,-5.969 -0.462,-8.842 -0.065,-2.868 -0.161,-5.644 -0.15,-8.275 0.008,-2.634 0.035,-5.123 0.128,-7.419 0.094,-2.298 0.212,-4.402 0.372,-6.265 0.165,-1.858 0.323,-3.491 0.517,-4.816 0.178,-1.328 0.335,-2.385 0.478,-3.096 0.125,-0.713 0.191,-1.094 0.191,-1.094 0,0 -0.126,0.364 -0.362,1.05 -0.245,0.684 -0.595,1.684 -0.94,3.005 -0.369,1.314 -0.762,2.917 -1.115,4.778 -0.369,1.859 -0.727,3.97 -1,6.284 -0.593,4.627 -0.949,10.064 -0.989,15.889 0.017,2.913 0.011,5.924 0.187,8.98 0.136,3.052 0.38,6.15 0.652,9.246 0.329,3.088 0.703,6.173 1.162,9.2 0.416,3.032 1.037,5.986 1.61,8.844 1.227,5.704 2.763,10.961 4.474,15.326 0.871,2.178 1.755,4.14 2.689,5.811 0.452,0.84 0.894,1.618 1.368,2.3 0.434,0.703 0.903,1.306 1.33,1.843 0.397,0.556 0.833,0.992 1.208,1.37 0.364,0.388 0.691,0.699 0.992,0.912 0.57,0.449 0.874,0.69 0.874,0.69 0,0 -0.262,-0.283 -0.752,-0.817 m -18.306,5.14 c -0.329,-0.809 -0.658,-1.679 -0.951,-2.618 -0.328,-0.924 -0.626,-1.914 -0.928,-2.947 -1.203,-4.141 -2.247,-9.079 -3.17,-14.407 -0.488,-2.66 -0.839,-5.438 -1.268,-8.246 -0.389,-2.816 -0.748,-5.683 -1.041,-8.559 -0.346,-2.868 -0.612,-5.748 -0.854,-8.586 -0.222,-2.838 -0.476,-5.629 -0.635,-8.336 -0.148,-2.708 -0.329,-5.325 -0.417,-7.811 -0.097,-2.487 -0.167,-4.835 -0.207,-7.006 -0.02,-2.171 -0.02,-4.161 0.007,-5.926 0.055,-1.763 0.11,-3.303 0.194,-4.57 0.12,-1.253 0.17,-2.257 0.283,-2.933 0.088,-0.681 0.135,-1.042 0.135,-1.042 0,0 -0.107,0.349 -0.307,1.002 -0.214,0.65 -0.466,1.625 -0.749,2.883 -0.264,1.256 -0.553,2.789 -0.797,4.561 -0.235,1.77 -0.474,3.772 -0.631,5.964 -0.347,4.383 -0.489,9.513 -0.378,14.997 0.074,2.743 0.15,5.581 0.362,8.455 0.206,2.874 0.436,5.791 0.751,8.705 0.666,5.818 1.539,11.62 2.729,16.997 0.55,2.696 1.248,5.272 1.936,7.703 0.7,2.43 1.463,4.701 2.283,6.76 0.8,2.061 1.642,3.915 2.523,5.492 0.84,1.595 1.741,2.901 2.546,3.916 0.364,0.531 0.81,0.923 1.148,1.29 0.333,0.375 0.657,0.651 0.94,0.856 0.537,0.423 0.825,0.651 0.825,0.651 0,0 -0.244,-0.273 -0.702,-0.78 -0.238,-0.242 -0.504,-0.561 -0.765,-0.98 -0.264,-0.417 -0.627,-0.84 -0.912,-1.407 -0.635,-1.084 -1.306,-2.454 -1.95,-4.078 m -14.441,10.672 c -0.624,-1.427 -1.269,-3.056 -1.856,-4.88 -1.189,-3.644 -2.251,-8.003 -3.137,-12.731 -0.479,-2.357 -0.81,-4.825 -1.224,-7.32 -0.368,-2.501 -0.708,-5.048 -0.975,-7.608 -0.321,-2.551 -0.557,-5.113 -0.774,-7.639 -0.184,-2.525 -0.417,-5.009 -0.537,-7.423 -0.281,-4.821 -0.429,-9.329 -0.449,-13.198 -0.001,-3.865 0.121,-7.093 0.296,-9.35 0.11,-1.117 0.165,-2.017 0.261,-2.619 0.077,-0.607 0.116,-0.931 0.116,-0.931 0,0 -0.1,0.31 -0.288,0.892 -0.196,0.579 -0.451,1.435 -0.727,2.555 -0.541,2.226 -1.138,5.454 -1.522,9.363 -0.189,1.954 -0.365,4.075 -0.442,6.32 -0.088,2.246 -0.167,4.617 -0.112,7.067 0.024,4.906 0.377,10.129 0.935,15.334 0.302,2.599 0.693,5.189 1.105,7.735 0.422,2.547 0.954,5.033 1.524,7.426 0.545,2.4 1.233,4.687 1.916,6.839 0.713,2.15 1.454,4.159 2.283,5.963 0.778,1.82 1.667,3.419 2.504,4.796 0.416,0.689 0.868,1.303 1.263,1.873 0.426,0.557 0.852,1.041 1.214,1.487 0.798,0.843 1.453,1.466 1.967,1.814 0.488,0.369 0.748,0.565 0.748,0.565 0,0 -0.219,-0.241 -0.629,-0.694 -0.435,-0.42 -0.928,-1.172 -1.569,-2.082 -0.597,-0.949 -1.246,-2.14 -1.891,-3.554 m -36.562,49.069 c 0,0 1.363,1.768 3.829,4.793 2.493,3.003 5.999,7.348 10.366,12.413 4.35,5.086 9.505,10.95 15.142,17.128 2.831,3.078 5.733,6.283 8.764,9.462 3.04,3.172 6.127,6.394 9.214,9.616 3.128,3.184 6.29,6.335 9.421,9.419 3.118,3.101 6.287,6.049 9.343,8.912 3.054,2.864 6.089,5.551 8.985,8.077 1.465,1.248 2.885,2.46 4.263,3.634 1.405,1.136 2.765,2.237 4.071,3.292 1.33,1.024 2.605,2.007 3.818,2.939 1.247,0.891 2.431,1.733 3.542,2.527 1.138,0.754 2.203,1.461 3.188,2.117 1.013,0.608 1.944,1.169 2.784,1.675 1.724,0.939 3.091,1.65 4.086,2.001 0.973,0.388 1.492,0.594 1.492,0.594 0,0 -0.492,-0.263 -1.416,-0.752 -0.946,-0.441 -2.197,-1.339 -3.824,-2.383 -0.787,-0.565 -1.659,-1.194 -2.608,-1.879 -0.918,-0.724 -1.91,-1.509 -2.972,-2.345 -2.082,-1.729 -4.386,-3.729 -6.884,-5.929 -2.474,-2.233 -5.12,-4.684 -7.903,-7.297 -2.745,-2.657 -5.64,-5.455 -8.635,-8.35 -2.954,-2.942 -6.006,-5.983 -9.107,-9.071 -3.097,-3.096 -6.218,-6.266 -9.31,-9.463 -3.108,-3.185 -6.214,-6.372 -9.271,-9.51 -3.049,-3.149 -6.047,-6.249 -8.948,-9.248 -5.801,-6.007 -11.215,-11.618 -15.854,-16.422 -4.666,-4.789 -8.553,-8.784 -11.273,-11.579 -2.739,-2.782 -4.303,-4.371 -4.303,-4.371 m 7.959,91.072 c -0.29,2.831 -0.502,5.67 -0.683,8.465 -0.187,2.795 -0.233,5.555 -0.276,8.221 -0.053,5.337 0.16,10.323 0.591,14.578 0.199,2.127 0.478,4.071 0.76,5.786 0.284,1.716 0.624,3.195 0.919,4.408 0.327,1.214 0.608,2.147 0.846,2.768 0.225,0.625 0.345,0.96 0.345,0.96 0,0 -0.06,-0.349 -0.175,-1.006 -0.137,-0.651 -0.221,-1.628 -0.382,-2.838 -0.12,-1.226 -0.222,-2.718 -0.317,-4.427 -0.072,-1.71 -0.112,-3.643 -0.133,-5.749 0.002,-2.107 0.033,-4.388 0.094,-6.803 0.052,-2.411 0.203,-4.954 0.319,-7.584 0.128,-2.631 0.356,-5.341 0.552,-8.098 0.214,-2.756 0.463,-5.551 0.785,-8.34 0.273,-2.793 0.609,-5.579 0.981,-8.313 0.411,-2.73 0.743,-5.427 1.216,-8.01 0.878,-5.179 1.9,-9.97 3.053,-13.998 0.573,-2.015 1.183,-3.835 1.798,-5.419 0.622,-1.579 1.256,-2.919 1.851,-3.987 0.625,-1.039 1.124,-1.883 1.572,-2.365 0.424,-0.511 0.65,-0.782 0.65,-0.782 0,0 -0.27,0.229 -0.778,0.661 -0.531,0.414 -1.199,1.144 -1.985,2.126 -0.764,0.998 -1.626,2.27 -2.442,3.82 -0.83,1.543 -1.682,3.335 -2.441,5.343 -0.801,1.999 -1.531,4.209 -2.226,6.568 -0.664,2.363 -1.342,4.864 -1.876,7.485 -0.562,2.617 -1.092,5.329 -1.511,8.103 -0.414,2.772 -0.801,5.596 -1.107,8.427 m 15.597,52.85 c 0.431,4.925 1.081,9.009 1.733,11.825 0.326,1.408 0.63,2.51 0.891,3.229 0.248,0.728 0.379,1.118 0.379,1.118 0,0 -0.073,-0.404 -0.208,-1.162 -0.162,-0.756 -0.26,-1.877 -0.425,-3.29 -0.285,-2.842 -0.46,-6.919 -0.503,-11.812 -0.024,-2.447 0.01,-5.097 0.046,-7.901 0.037,-2.802 0.162,-5.756 0.248,-8.814 0.11,-3.056 0.297,-6.209 0.462,-9.416 0.172,-3.205 0.388,-6.46 0.663,-9.71 0.228,-3.25 0.518,-6.499 0.836,-9.689 0.361,-3.186 0.647,-6.331 1.062,-9.354 0.786,-6.052 1.68,-11.678 2.744,-16.43 0.56,-2.367 1.087,-4.539 1.703,-6.414 0.285,-0.947 0.597,-1.814 0.913,-2.605 0.285,-0.811 0.609,-1.519 0.926,-2.153 0.284,-0.655 0.607,-1.195 0.896,-1.661 0.279,-0.479 0.52,-0.888 0.778,-1.165 0.487,-0.594 0.745,-0.913 0.745,-0.913 0,0 -0.303,0.277 -0.875,0.794 -0.309,0.245 -0.612,0.615 -0.964,1.055 -0.374,0.429 -0.777,0.942 -1.145,1.57 -0.403,0.608 -0.831,1.295 -1.221,2.078 -0.433,0.766 -0.826,1.628 -1.222,2.56 -0.832,1.85 -1.599,3.998 -2.345,6.368 -0.733,2.373 -1.446,4.967 -2.061,7.739 -0.62,2.77 -1.241,5.702 -1.715,8.756 -1.049,6.097 -1.777,12.65 -2.31,19.216 -0.239,3.283 -0.419,6.57 -0.555,9.807 -0.154,3.239 -0.158,6.428 -0.182,9.512 0.004,6.174 0.256,11.938 0.706,16.862 m 15.608,-10.23 c 0.312,5.818 0.92,11.233 1.728,15.825 0.38,2.302 0.834,4.393 1.289,6.233 0.44,1.844 0.908,3.426 1.339,4.721 0.403,1.301 0.8,2.286 1.077,2.959 0.267,0.672 0.41,1.032 0.41,1.032 0,0 -0.084,-0.378 -0.243,-1.086 -0.175,-0.704 -0.38,-1.751 -0.619,-3.07 -0.256,-1.313 -0.491,-2.935 -0.741,-4.788 -0.247,-1.851 -0.462,-3.95 -0.662,-6.238 -0.201,-2.289 -0.343,-4.775 -0.474,-7.407 -0.135,-2.626 -0.166,-5.405 -0.237,-8.273 -0.034,-2.874 0.005,-5.838 0.054,-8.852 0.03,-3.014 0.169,-6.076 0.329,-9.132 0.28,-6.116 0.846,-12.215 1.522,-17.907 0.39,-2.835 0.745,-5.586 1.216,-8.166 0.445,-2.588 0.972,-5.007 1.489,-7.236 0.583,-2.208 1.132,-4.234 1.771,-5.973 0.302,-0.879 0.623,-1.683 0.95,-2.415 0.294,-0.752 0.634,-1.4 0.949,-1.99 0.292,-0.603 0.624,-1.093 0.906,-1.53 0.269,-0.449 0.52,-0.815 0.765,-1.075 0.465,-0.555 0.713,-0.852 0.713,-0.852 0,0 -0.293,0.254 -0.841,0.73 -0.292,0.228 -0.603,0.552 -0.948,0.958 -0.358,0.393 -0.772,0.85 -1.143,1.423 -0.404,0.557 -0.844,1.182 -1.242,1.905 -0.447,0.703 -0.849,1.498 -1.26,2.36 -0.856,1.711 -1.649,3.713 -2.417,5.931 -1.51,4.44 -2.798,9.759 -3.755,15.516 -0.443,2.883 -0.926,5.862 -1.199,8.909 -0.319,3.044 -0.55,6.143 -0.735,9.244 -0.126,3.106 -0.224,6.211 -0.222,9.269 -0.034,3.057 0.112,6.066 0.231,8.975 m 18.512,2.143 c 0.138,2.489 0.395,4.889 0.642,7.16 0.239,2.273 0.555,4.414 0.875,6.384 0.635,3.944 1.417,7.191 2.076,9.427 0.339,1.122 0.635,1.983 0.864,2.562 0.22,0.582 0.336,0.894 0.336,0.894 0,0 -0.059,-0.327 -0.166,-0.94 -0.127,-0.609 -0.23,-1.519 -0.401,-2.652 -0.3,-2.288 -0.606,-5.564 -0.855,-9.501 -0.234,-3.936 -0.407,-8.531 -0.506,-13.458 -0.072,-2.461 -0.04,-5.009 -0.08,-7.593 -0.007,-2.587 0.003,-5.215 0.069,-7.84 0.018,-2.625 0.095,-5.25 0.192,-7.831 0.128,-2.579 0.191,-5.122 0.362,-7.575 0.314,-4.904 0.712,-9.476 1.27,-13.36 0.3,-1.935 0.578,-3.716 0.932,-5.265 0.335,-1.556 0.702,-2.896 1.075,-3.976 0.376,-1.073 0.705,-1.928 1.013,-2.459 0.295,-0.546 0.453,-0.836 0.453,-0.836 0,0 -0.21,0.256 -0.603,0.741 -0.211,0.236 -0.43,0.554 -0.668,0.939 -0.248,0.385 -0.543,0.824 -0.791,1.356 -0.548,1.039 -1.151,2.341 -1.679,3.888 -0.573,1.535 -1.086,3.303 -1.574,5.252 -0.483,1.948 -0.938,4.074 -1.305,6.337 -0.38,2.263 -0.739,4.655 -0.986,7.139 -0.576,4.965 -0.831,10.283 -0.953,15.599 -0.056,5.317 0.05,10.636 0.408,15.608 m 16.192,-9.169 c 0.008,2.007 0.233,3.979 0.342,5.887 0.171,1.909 0.387,3.746 0.636,5.485 0.272,1.738 0.51,3.378 0.865,4.875 0.315,1.502 0.619,2.869 0.992,4.074 0.353,1.2 0.629,2.254 0.967,3.074 0.627,1.665 1.016,2.606 1.016,2.606 0,0 -0.125,-1.012 -0.393,-2.772 -0.17,-0.875 -0.212,-1.951 -0.371,-3.159 -0.161,-1.204 -0.228,-2.589 -0.362,-4.086 -0.152,-1.493 -0.164,-3.132 -0.294,-4.845 -0.061,-1.719 -0.126,-3.534 -0.191,-5.411 -0.034,-3.754 -0.134,-7.756 -0.004,-11.762 -0.014,-2.002 0.091,-4.004 0.132,-5.975 0.14,-1.967 0.113,-3.912 0.263,-5.785 0.111,-1.875 0.2,-3.69 0.339,-5.408 0.108,-1.722 0.288,-3.337 0.398,-4.842 0.162,-1.499 0.31,-2.873 0.443,-4.089 0.171,-1.215 0.32,-2.276 0.443,-3.147 0.323,-1.729 0.487,-2.746 0.487,-2.746 0,0 -0.422,0.918 -1.114,2.577 -0.62,1.674 -1.425,4.112 -2.11,7.1 -0.319,1.495 -0.717,3.117 -0.967,4.849 -0.304,1.729 -0.59,3.559 -0.785,5.462 -0.235,1.899 -0.403,3.867 -0.546,5.87 -0.078,2.004 -0.229,4.042 -0.247,6.081 -0.021,2.038 -0.005,4.079 0.061,6.087 m 16.362,0.303 c 0.07,1.211 0.265,2.373 0.452,3.473 0.141,1.1 0.43,2.129 0.66,3.072 0.197,0.943 0.539,1.805 0.788,2.552 0.234,0.762 0.518,1.381 0.764,1.885 0.481,1.015 0.786,1.587 0.786,1.587 0,0 -0.042,-0.647 -0.165,-1.765 -0.081,-0.557 -0.136,-1.239 -0.177,-1.999 -0.038,-0.769 -0.133,-1.598 -0.151,-2.544 -0.072,-1.876 -0.136,-4.046 -0.089,-6.377 -0.023,-1.163 0.069,-2.369 0.088,-3.59 0.053,-1.223 0.108,-2.464 0.16,-3.707 0.078,-1.244 0.153,-2.486 0.23,-3.711 0.089,-1.223 0.143,-2.433 0.249,-3.6 0.194,-2.347 0.375,-4.534 0.528,-6.411 0.328,-3.761 0.608,-6.326 0.608,-6.326 0,0 -0.075,0.143 -0.218,0.408 -0.131,0.271 -0.377,0.656 -0.589,1.177 -0.467,1.029 -1.092,2.528 -1.639,4.377 -0.303,0.921 -0.567,1.93 -0.832,3.005 -0.241,1.075 -0.53,2.211 -0.71,3.404 -0.198,1.187 -0.429,2.415 -0.552,3.676 -0.175,1.256 -0.231,2.546 -0.334,3.828 -0.113,2.577 -0.1,5.166 0.143,7.586 m 16.168,-44.514 c 1.469,-0.354 3.032,-0.792 4.714,-1.179 1.672,-0.414 3.448,-0.795 5.281,-1.21 1.822,-0.451 3.748,-0.74 5.666,-1.198 1.938,-0.359 3.895,-0.787 5.874,-1.098 3.93,-0.779 7.897,-1.329 11.607,-1.905 1.864,-0.238 3.664,-0.468 5.369,-0.69 1.712,-0.147 3.331,-0.4 4.829,-0.493 1.499,-0.109 2.878,-0.267 4.09,-0.304 1.218,-0.039 2.288,-0.173 3.181,-0.148 1.777,-0.021 2.796,-0.063 2.796,-0.063 0,0 -0.993,-0.231 -2.735,-0.581 -0.866,-0.199 -1.949,-0.3 -3.191,-0.452 -1.249,-0.173 -2.648,-0.25 -4.182,-0.318 -1.535,-0.107 -3.19,-0.075 -4.949,-0.062 -1.757,0.032 -3.606,0.117 -5.514,0.261 -1.902,0.202 -3.884,0.302 -5.869,0.617 -1.991,0.259 -4.005,0.575 -6.013,0.927 -2.01,0.348 -3.995,0.825 -5.96,1.229 -1.953,0.464 -3.869,0.949 -5.705,1.491 -1.846,0.499 -3.604,1.078 -5.26,1.657 -1.67,0.53 -3.206,1.185 -4.631,1.742 -2.837,1.161 -5.112,2.349 -6.663,3.232 -1.523,0.954 -2.363,1.517 -2.363,1.517 0,0 0.976,-0.324 2.631,-0.927 0.838,-0.261 1.862,-0.58 3.034,-0.946 1.18,-0.328 2.51,-0.698 3.963,-1.099 m 9.732,14.772 c 1.826,-0.459 3.957,-0.99 6.238,-1.563 1.137,-0.292 2.322,-0.542 3.516,-0.83 1.195,-0.272 2.409,-0.55 3.625,-0.824 1.216,-0.257 2.434,-0.512 3.631,-0.763 1.202,-0.214 2.376,-0.502 3.527,-0.668 2.294,-0.422 4.446,-0.712 6.308,-0.947 0.935,-0.134 1.771,-0.177 2.535,-0.261 0.756,-0.083 1.439,-0.138 2.001,-0.149 1.123,-0.06 1.77,-0.124 1.77,-0.124 0,0 -0.614,-0.206 -1.695,-0.518 -0.537,-0.165 -1.193,-0.342 -1.983,-0.45 -0.778,-0.125 -1.685,-0.321 -2.648,-0.362 -0.968,-0.075 -2.029,-0.195 -3.137,-0.155 -1.115,-0.005 -2.297,-0.009 -3.501,0.119 -2.428,0.152 -4.982,0.556 -7.508,1.088 -1.251,0.307 -2.514,0.573 -3.724,0.949 -1.224,0.327 -2.4,0.751 -3.541,1.141 -1.146,0.371 -2.218,0.841 -3.242,1.254 -1.017,0.434 -1.97,0.86 -2.828,1.307 -1.739,0.839 -3.115,1.699 -4.056,2.325 -0.477,0.295 -0.82,0.601 -1.063,0.773 -0.241,0.184 -0.368,0.283 -0.368,0.283 0,0 2.483,-0.695 6.143,-1.625 m 44.746,-40.207 c 0,0 -0.324,-0.065 -0.934,-0.186 -0.609,-0.13 -1.506,-0.285 -2.669,-0.436 -2.315,-0.29 -5.644,-0.532 -9.637,-0.522 -1.997,0.005 -4.161,0.041 -6.442,0.172 -2.284,0.126 -4.69,0.261 -7.168,0.529 -4.967,0.452 -10.232,1.209 -15.467,2.126 -5.228,0.981 -10.434,2.1 -15.241,3.468 -2.411,0.649 -4.712,1.391 -6.882,2.131 -2.173,0.73 -4.199,1.521 -6.041,2.317 -1.844,0.794 -3.508,1.589 -4.93,2.402 -1.438,0.774 -2.627,1.58 -3.563,2.289 -0.484,0.33 -0.871,0.692 -1.207,0.999 -0.344,0.296 -0.621,0.567 -0.822,0.812 -0.413,0.465 -0.633,0.715 -0.633,0.715 0,0 0.261,-0.202 0.751,-0.581 0.477,-0.39 1.264,-0.852 2.262,-1.4 1.007,-0.543 2.27,-1.121 3.75,-1.706 1.472,-0.602 3.184,-1.163 5.046,-1.772 3.741,-1.179 8.187,-2.316 12.978,-3.419 2.39,-0.565 4.889,-1.042 7.414,-1.586 2.532,-0.515 5.109,-1.014 7.698,-1.457 2.578,-0.49 5.168,-0.926 7.721,-1.339 2.559,-0.379 5.065,-0.823 7.506,-1.153 4.876,-0.698 9.441,-1.274 13.364,-1.68 3.923,-0.395 7.205,-0.625 9.511,-0.701 1.146,-0.012 2.06,-0.056 2.682,-0.032 0.622,0.007 0.953,0.01 0.953,0.01 m -1.742,-17.827 c -0.707,-0.162 -1.743,-0.395 -3.094,-0.582 -1.348,-0.216 -2.986,-0.419 -4.875,-0.554 -1.889,-0.152 -4.027,-0.263 -6.358,-0.264 -4.664,-0.05 -10.109,0.227 -15.896,0.863 -2.89,0.354 -5.883,0.696 -8.896,1.227 -3.019,0.492 -6.067,1.094 -9.109,1.721 -3.03,0.684 -6.051,1.417 -9.003,2.224 -2.963,0.765 -5.824,1.725 -8.596,2.628 -5.526,1.878 -10.567,4.015 -14.703,6.22 -2.065,1.119 -3.91,2.224 -5.46,3.346 -0.783,0.545 -1.505,1.074 -2.127,1.627 -0.649,0.511 -1.193,1.046 -1.675,1.533 -0.509,0.46 -0.893,0.944 -1.222,1.361 -0.343,0.406 -0.614,0.765 -0.792,1.09 -0.381,0.617 -0.582,0.947 -0.582,0.947 0,0 0.249,-0.292 0.725,-0.84 0.218,-0.284 0.54,-0.591 0.935,-0.932 0.386,-0.347 0.816,-0.754 1.366,-1.138 0.528,-0.407 1.114,-0.849 1.808,-1.26 0.668,-0.443 1.409,-0.892 2.227,-1.33 1.615,-0.912 3.524,-1.786 5.609,-2.715 2.115,-0.872 4.419,-1.784 6.898,-2.644 2.47,-0.881 5.126,-1.679 7.862,-2.524 5.508,-1.59 11.432,-3.137 17.425,-4.403 2.988,-0.656 5.988,-1.285 8.953,-1.807 2.97,-0.537 5.89,-1.053 8.729,-1.487 2.841,-0.398 5.589,-0.814 8.204,-1.107 2.616,-0.299 5.092,-0.562 7.384,-0.735 2.29,-0.174 4.397,-0.3 6.265,-0.358 1.866,-0.054 3.505,-0.086 4.844,-0.046 1.339,0.023 2.408,0.055 3.131,0.115 0.723,0.042 1.109,0.064 1.109,0.064 0,0 -0.378,-0.083 -1.086,-0.24 M 447.749,379.05 c -0.693,-0.138 -1.728,-0.268 -3.057,-0.39 -1.324,-0.1 -2.934,-0.189 -4.784,-0.193 -1.847,-0.003 -3.936,0.031 -6.203,0.171 -4.541,0.248 -9.817,0.812 -15.426,1.679 -2.8,0.454 -5.698,0.915 -8.616,1.525 -2.918,0.595 -5.878,1.236 -8.821,1.944 -5.877,1.461 -11.713,3.126 -17.071,5.043 -2.696,0.915 -5.249,1.956 -7.654,2.969 -2.406,1.021 -4.639,2.089 -6.654,3.175 -2.019,1.076 -3.828,2.147 -5.343,3.241 -1.54,1.044 -2.782,2.113 -3.734,3.052 -0.503,0.438 -0.867,0.926 -1.202,1.322 -0.344,0.387 -0.602,0.741 -0.778,1.059 -0.373,0.602 -0.573,0.923 -0.573,0.923 0,0 0.249,-0.283 0.715,-0.815 0.217,-0.274 0.52,-0.578 0.92,-0.899 0.391,-0.326 0.795,-0.736 1.342,-1.098 1.04,-0.781 2.373,-1.628 3.969,-2.481 0.787,-0.446 1.649,-0.878 2.576,-1.298 0.908,-0.45 1.895,-0.87 2.918,-1.317 4.107,-1.75 9.047,-3.453 14.397,-5.101 2.669,-0.848 5.472,-1.577 8.3,-2.394 2.837,-0.771 5.735,-1.521 8.644,-2.211 2.902,-0.737 5.818,-1.406 8.697,-2.034 2.881,-0.612 5.71,-1.248 8.466,-1.781 5.508,-1.086 10.672,-1.984 15.116,-2.645 2.221,-0.318 4.262,-0.582 6.078,-0.789 1.816,-0.183 3.401,-0.328 4.712,-0.397 1.302,-0.047 2.338,-0.12 3.047,-0.084 0.708,0.007 1.086,0.013 1.086,0.013 0,0 -0.371,-0.068 -1.067,-0.189 m -24.319,-9.274 c -0.596,-0.129 -1.475,-0.284 -2.616,-0.43 -2.266,-0.283 -5.529,-0.511 -9.445,-0.46 -1.958,0.027 -4.078,0.089 -6.31,0.26 -2.237,0.162 -4.596,0.346 -7.019,0.669 -4.856,0.564 -9.996,1.489 -15.091,2.618 -2.543,0.584 -5.067,1.255 -7.546,1.945 -2.474,0.699 -4.88,1.499 -7.189,2.331 -2.32,0.804 -4.507,1.74 -6.569,2.657 -2.047,0.947 -3.957,1.907 -5.651,2.93 -1.719,0.974 -3.201,2.037 -4.47,3.021 -0.635,0.492 -1.194,1.008 -1.713,1.465 -0.501,0.487 -0.932,0.962 -1.332,1.374 -0.746,0.887 -1.288,1.609 -1.572,2.157 -0.307,0.526 -0.472,0.806 -0.472,0.806 0,0 0.213,-0.243 0.616,-0.702 0.364,-0.479 1.053,-1.055 1.878,-1.792 0.874,-0.702 1.979,-1.48 3.305,-2.279 1.344,-0.778 2.885,-1.602 4.629,-2.388 3.475,-1.586 7.676,-3.119 12.264,-4.521 2.28,-0.735 4.689,-1.334 7.115,-2.021 2.438,-0.639 4.927,-1.257 7.432,-1.802 2.494,-0.601 5.007,-1.117 7.486,-1.61 2.483,-0.46 4.919,-0.967 7.295,-1.351 4.748,-0.809 9.198,-1.455 13.03,-1.905 3.83,-0.431 7.043,-0.674 9.299,-0.757 1.122,-0.018 2.017,-0.065 2.625,-0.039 0.61,0.006 0.935,0.007 0.935,0.007 0,0 -0.319,-0.064 -0.914,-0.183 m -64.735,-38.113 c 0.35,0.575 0.997,1.322 1.882,2.217 0.903,0.873 2.068,1.879 3.513,2.87 1.434,1.003 3.113,2.056 5.022,3.043 1.892,1.028 4.002,2.011 6.265,2.973 2.269,0.934 4.676,1.9 7.217,2.733 2.533,0.863 5.165,1.703 7.872,2.442 2.706,0.734 5.464,1.446 8.241,2.079 2.779,0.614 5.574,1.157 8.329,1.658 2.756,0.511 5.49,0.878 8.135,1.229 5.294,0.67 10.27,1.039 14.546,1.107 2.137,0.05 4.098,-0.002 5.835,-0.083 1.737,-0.085 3.247,-0.246 4.484,-0.4 1.244,-0.187 2.206,-0.357 2.848,-0.522 0.648,-0.151 0.995,-0.229 0.995,-0.229 0,0 -0.355,0.018 -1.021,0.055 -0.663,0.062 -1.64,0.03 -2.862,0.052 -1.232,-0.024 -2.725,-0.095 -4.434,-0.2 -1.708,-0.127 -3.63,-0.312 -5.724,-0.536 -2.094,-0.249 -4.358,-0.541 -6.745,-0.885 -2.392,-0.329 -4.9,-0.776 -7.498,-1.195 -2.597,-0.43 -5.263,-0.974 -7.98,-1.489 -2.711,-0.532 -5.461,-1.103 -8.192,-1.747 -2.742,-0.595 -5.47,-1.252 -8.145,-1.941 -2.66,-0.726 -5.302,-1.367 -7.814,-2.135 -5.039,-1.475 -9.682,-3.047 -13.548,-4.659 -1.934,-0.801 -3.67,-1.618 -5.171,-2.416 -1.499,-0.801 -2.757,-1.583 -3.747,-2.299 -0.96,-0.741 -1.739,-1.334 -2.165,-1.836 -0.46,-0.48 -0.703,-0.737 -0.703,-0.737 0,0 0.197,0.295 0.565,0.851 m 103.37,11.541 c 1.439,-0.164 2.568,-0.336 3.313,-0.51 0.752,-0.163 1.154,-0.249 1.154,-0.249 0,0 -0.41,0.025 -1.179,0.075 -0.771,0.072 -1.894,0.036 -3.315,0.036 -2.857,-0.045 -6.928,-0.344 -11.793,-0.868 -2.432,-0.262 -5.061,-0.603 -7.84,-0.963 -2.779,-0.366 -5.699,-0.831 -8.725,-1.272 -3.022,-0.464 -6.134,-1.015 -9.3,-1.552 -3.163,-0.542 -6.37,-1.135 -9.566,-1.785 -3.203,-0.605 -6.394,-1.27 -9.528,-1.959 -3.121,-0.726 -6.212,-1.376 -9.166,-2.138 -5.92,-1.483 -11.405,-3.025 -16.001,-4.632 -2.286,-0.83 -4.382,-1.61 -6.171,-2.437 -0.908,-0.394 -1.732,-0.804 -2.481,-1.211 -0.774,-0.375 -1.44,-0.781 -2.033,-1.167 -0.615,-0.359 -1.117,-0.739 -1.547,-1.082 -0.443,-0.335 -0.821,-0.619 -1.065,-0.909 -0.535,-0.552 -0.819,-0.847 -0.819,-0.847 0,0 0.238,0.334 0.687,0.963 0.207,0.337 0.54,0.678 0.934,1.08 0.383,0.42 0.848,0.881 1.425,1.318 0.557,0.472 1.192,0.974 1.927,1.453 0.708,0.519 1.519,1.01 2.398,1.512 1.74,1.042 3.786,2.052 6.053,3.069 2.27,1.004 4.766,2.012 7.448,2.945 2.679,0.938 5.517,1.894 8.497,2.722 5.935,1.748 12.358,3.232 18.815,4.524 3.234,0.617 6.48,1.178 9.679,1.689 3.197,0.528 6.365,0.903 9.428,1.284 6.13,0.715 11.884,1.133 16.827,1.256 4.942,0.145 9.074,-0.028 11.944,-0.345 m 9.876,-18.284 c 0.701,-0.188 1.075,-0.29 1.075,-0.29 0,0 -0.384,0.041 -1.107,0.116 -0.718,0.094 -1.784,0.175 -3.122,0.26 -1.335,0.101 -2.972,0.146 -4.839,0.178 -1.87,0.031 -3.977,0.003 -6.276,-0.066 -2.296,-0.065 -4.782,-0.215 -7.409,-0.39 -2.627,-0.17 -5.39,-0.46 -8.245,-0.726 -2.858,-0.3 -5.8,-0.682 -8.788,-1.077 -2.99,-0.383 -6.013,-0.874 -9.031,-1.389 -6.043,-0.988 -12.034,-2.257 -17.609,-3.59 -2.774,-0.717 -5.461,-1.391 -7.971,-2.156 -2.516,-0.743 -4.86,-1.547 -7.015,-2.32 -2.125,-0.833 -4.073,-1.616 -5.726,-2.451 -0.838,-0.403 -1.6,-0.816 -2.287,-1.226 -0.714,-0.379 -1.32,-0.792 -1.866,-1.174 -0.569,-0.358 -1.013,-0.745 -1.416,-1.075 -0.413,-0.321 -0.747,-0.612 -0.978,-0.886 -0.499,-0.526 -0.763,-0.806 -0.763,-0.806 0,0 0.217,0.32 0.626,0.92 0.194,0.315 0.479,0.662 0.841,1.051 0.35,0.401 0.755,0.867 1.283,1.302 0.506,0.464 1.075,0.973 1.745,1.454 0.647,0.524 1.391,1.019 2.2,1.527 1.599,1.048 3.497,2.067 5.609,3.09 4.234,2.01 9.369,3.909 14.975,5.528 2.811,0.775 5.716,1.602 8.71,2.227 2.987,0.671 6.039,1.259 9.098,1.802 3.068,0.486 6.142,0.946 9.18,1.295 3.033,0.39 6.037,0.594 8.941,0.814 5.813,0.366 11.262,0.39 15.918,0.122 2.33,-0.109 4.461,-0.319 6.339,-0.559 1.883,-0.22 3.509,-0.503 4.846,-0.78 1.34,-0.249 2.364,-0.529 3.062,-0.725 m -174.207,20.322 c -2.413,-2.388 -5.518,-5.86 -9.744,-9.865 -4.206,-4.027 -9.046,-8.639 -14.484,-13.475 -2.732,-2.406 -5.456,-4.919 -8.38,-7.385 -2.925,-2.459 -5.863,-4.956 -8.836,-7.454 -3.011,-2.456 -6.033,-4.874 -9.039,-7.243 -3,-2.375 -6.025,-4.611 -8.953,-6.782 -5.88,-4.316 -11.52,-8.144 -16.52,-11.172 -4.985,-3.063 -9.378,-5.221 -12.512,-6.572 -1.587,-0.639 -2.844,-1.095 -3.732,-1.321 -0.874,-0.254 -1.339,-0.388 -1.339,-0.388 0,0 0.445,0.192 1.279,0.556 0.85,0.317 2.015,0.972 3.52,1.728 1.478,0.823 3.256,1.837 5.226,3.124 1.978,1.274 4.162,2.779 6.532,4.441 2.365,1.669 4.883,3.541 7.545,5.523 2.628,2.025 5.404,4.163 8.274,6.371 2.833,2.258 5.762,4.592 8.738,6.963 2.968,2.384 5.966,4.827 8.948,7.294 6.003,4.882 11.931,9.859 17.523,14.491 5.584,4.646 10.797,8.98 15.263,12.698 4.491,3.699 7.648,6.778 10.264,8.936 2.116,1.719 3.367,2.835 3.367,3.214 v -0.048 c 0,-0.464 -1.062,-1.738 -2.94,-3.634 M 284.28,254.773 c -0.026,-2.8 -0.188,-5.554 -0.349,-8.218 -0.353,-5.326 -0.946,-10.282 -1.695,-14.491 -0.36,-2.106 -0.786,-4.023 -1.198,-5.711 -0.414,-1.688 -0.865,-3.139 -1.25,-4.325 -0.42,-1.184 -0.771,-2.095 -1.057,-2.696 -0.272,-0.607 -0.415,-0.931 -0.415,-0.931 0,0 0.086,0.346 0.249,0.99 0.188,0.639 0.343,1.605 0.598,2.799 0.211,1.216 0.427,2.695 0.652,4.39 0.202,1.703 0.389,3.624 0.568,5.722 0.159,2.102 0.303,4.381 0.423,6.791 0.132,2.41 0.176,4.956 0.258,7.588 0.074,2.631 0.052,5.353 0.065,8.116 -0.003,2.764 -0.037,5.572 -0.147,8.376 -0.059,2.806 -0.185,5.607 -0.346,8.362 -0.204,2.753 -0.33,5.469 -0.602,8.08 -0.483,5.231 -1.139,10.088 -1.983,14.191 -0.417,2.052 -0.887,3.913 -1.383,5.537 -0.497,1.623 -1.027,3.009 -1.539,4.117 -0.545,1.084 -0.976,1.964 -1.387,2.477 -0.385,0.544 -0.59,0.833 -0.59,0.833 0,0 0.251,-0.253 0.724,-0.719 0.501,-0.453 1.111,-1.232 1.819,-2.271 0.686,-1.054 1.45,-2.389 2.145,-3.996 0.712,-1.601 1.423,-3.452 2.026,-5.513 0.649,-2.055 1.209,-4.312 1.721,-6.717 0.481,-2.407 0.97,-4.953 1.303,-7.608 0.362,-2.649 0.682,-5.394 0.891,-8.192 0.202,-2.798 0.373,-5.641 0.463,-8.486 0.072,-2.847 0.069,-5.694 0.036,-8.495 m -14.189,-16.761 c -0.093,-3.24 -0.332,-6.421 -0.543,-9.5 -0.473,-6.154 -1.16,-11.883 -1.985,-16.758 -0.801,-4.878 -1.763,-8.901 -2.625,-11.659 -0.435,-1.379 -0.819,-2.454 -1.134,-3.151 -0.302,-0.709 -0.464,-1.088 -0.464,-1.088 0,0 0.104,0.397 0.297,1.145 0.219,0.74 0.404,1.851 0.674,3.248 0.501,2.813 0.985,6.863 1.4,11.738 0.209,2.44 0.379,5.084 0.553,7.882 0.174,2.799 0.277,5.753 0.422,8.807 0.125,3.055 0.177,6.217 0.254,9.426 0.075,3.209 0.106,6.47 0.079,9.729 0.019,3.261 -0.024,6.522 -0.1,9.728 -0.119,3.204 -0.163,6.362 -0.348,9.406 -0.323,6.096 -0.788,11.773 -1.484,16.595 -0.379,2.399 -0.741,4.606 -1.212,6.522 -0.213,0.966 -0.459,1.856 -0.713,2.667 -0.221,0.829 -0.494,1.562 -0.758,2.217 -0.234,0.675 -0.513,1.237 -0.768,1.725 -0.241,0.498 -0.449,0.923 -0.688,1.221 -0.441,0.629 -0.675,0.966 -0.675,0.966 0,0 0.285,-0.298 0.816,-0.857 0.289,-0.269 0.56,-0.661 0.882,-1.127 0.338,-0.454 0.7,-0.998 1.02,-1.651 0.357,-0.636 0.728,-1.354 1.058,-2.165 0.376,-0.797 0.701,-1.687 1.025,-2.646 0.689,-1.907 1.29,-4.108 1.856,-6.53 0.55,-2.42 1.063,-5.062 1.464,-7.872 0.409,-2.807 0.806,-5.78 1.048,-8.86 0.58,-6.16 0.809,-12.75 0.842,-19.335 -0.013,-3.292 -0.082,-6.585 -0.193,-9.823 m -15.916,3.32 c -0.112,-3.106 -0.248,-6.209 -0.484,-9.259 -0.198,-3.051 -0.573,-6.041 -0.914,-8.932 -0.752,-5.776 -1.771,-11.129 -2.923,-15.649 -0.553,-2.265 -1.166,-4.315 -1.761,-6.115 -0.577,-1.804 -1.163,-3.346 -1.691,-4.606 -0.502,-1.268 -0.974,-2.219 -1.299,-2.869 -0.319,-0.65 -0.489,-0.998 -0.489,-0.998 0,0 0.114,0.37 0.327,1.065 0.227,0.686 0.512,1.718 0.85,3.013 0.353,1.292 0.714,2.893 1.101,4.718 0.388,1.829 0.762,3.904 1.134,6.171 0.375,2.266 0.705,4.736 1.036,7.348 0.332,2.61 0.575,5.376 0.865,8.233 0.25,2.861 0.439,5.822 0.62,8.831 0.197,3.006 0.291,6.069 0.365,9.128 0.185,6.121 0.087,12.246 -0.157,17.972 -0.173,2.857 -0.319,5.627 -0.591,8.235 -0.247,2.613 -0.589,5.066 -0.937,7.328 -0.409,2.245 -0.807,4.309 -1.31,6.092 -0.234,0.9 -0.492,1.725 -0.766,2.479 -0.235,0.773 -0.525,1.445 -0.794,2.054 -0.244,0.627 -0.539,1.139 -0.783,1.597 -0.238,0.465 -0.46,0.85 -0.684,1.131 -0.421,0.589 -0.644,0.902 -0.644,0.902 0,0 0.271,-0.276 0.782,-0.793 0.273,-0.248 0.557,-0.595 0.871,-1.025 0.328,-0.419 0.705,-0.907 1.034,-1.508 0.356,-0.586 0.749,-1.242 1.092,-1.993 0.39,-0.733 0.734,-1.56 1.077,-2.448 0.723,-1.772 1.361,-3.828 1.961,-6.097 1.164,-4.541 2.045,-9.945 2.562,-15.756 0.222,-2.908 0.478,-5.915 0.52,-8.976 0.086,-3.06 0.081,-6.167 0.03,-9.273 m -18.123,4.543 c -0.065,-2.615 -0.146,-5.276 -0.302,-7.931 -0.347,-5.305 -0.857,-10.6 -1.595,-15.534 -0.327,-2.469 -0.765,-4.843 -1.183,-7.089 -0.411,-2.247 -0.889,-4.359 -1.357,-6.3 -0.936,-3.882 -1.961,-7.06 -2.789,-9.24 -0.421,-1.094 -0.784,-1.931 -1.055,-2.491 -0.262,-0.562 -0.402,-0.863 -0.402,-0.863 0,0 0.083,0.322 0.237,0.924 0.172,0.599 0.344,1.498 0.601,2.614 0.473,2.258 1.026,5.501 1.574,9.405 0.534,3.909 1.053,8.48 1.527,13.384 0.258,2.448 0.423,4.991 0.656,7.566 0.205,2.578 0.398,5.198 0.528,7.821 0.185,2.618 0.308,5.243 0.405,7.823 0.071,2.582 0.199,5.121 0.214,7.58 0.062,4.915 0.011,9.505 -0.249,13.418 -0.151,1.953 -0.292,3.751 -0.527,5.321 -0.218,1.58 -0.481,2.945 -0.771,4.049 -0.295,1.099 -0.557,1.974 -0.823,2.527 -0.253,0.567 -0.389,0.87 -0.389,0.87 0,0 0.19,-0.274 0.544,-0.785 0.194,-0.254 0.386,-0.586 0.597,-0.991 0.217,-0.399 0.48,-0.861 0.685,-1.41 0.468,-1.075 0.968,-2.424 1.38,-4.004 0.453,-1.574 0.83,-3.378 1.168,-5.356 0.334,-1.979 0.627,-4.133 0.82,-6.419 0.207,-2.285 0.384,-4.697 0.441,-7.193 0.07,-2.497 0.133,-5.078 0.065,-7.696 m -16.819,-7.024 c -0.135,-2.035 -0.305,-4.067 -0.523,-6.066 -0.164,-2 -0.538,-3.949 -0.792,-5.845 -0.314,-1.889 -0.668,-3.706 -1.051,-5.419 -0.403,-1.711 -0.764,-3.33 -1.232,-4.794 -0.427,-1.473 -0.836,-2.815 -1.3,-3.986 -0.439,-1.173 -0.796,-2.201 -1.194,-2.994 -0.752,-1.611 -1.212,-2.52 -1.212,-2.52 0,0 0.201,0.999 0.602,2.731 0.235,0.86 0.358,1.933 0.61,3.124 0.252,1.187 0.425,2.566 0.672,4.047 0.264,1.476 0.402,3.109 0.662,4.809 0.189,1.709 0.392,3.512 0.6,5.377 0.319,3.743 0.725,7.726 0.901,11.73 0.165,1.997 0.211,4 0.321,5.97 0.009,1.968 0.185,3.911 0.177,5.786 0.029,1.88 0.081,3.696 0.076,5.418 0.021,1.726 -0.035,3.349 -0.03,4.859 -0.049,1.508 -0.092,2.887 -0.13,4.11 -0.078,1.225 -0.147,2.293 -0.203,3.173 -0.192,1.748 -0.276,2.775 -0.276,2.775 0,0 0.349,-0.948 0.915,-2.653 0.489,-1.718 1.106,-4.21 1.562,-7.242 0.203,-1.515 0.477,-3.161 0.593,-4.909 0.174,-1.747 0.32,-3.593 0.37,-5.506 0.09,-1.91 0.108,-3.886 0.099,-5.892 -0.074,-2.007 -0.079,-4.049 -0.217,-6.083 m -16.144,2.426 c -0.082,-2.578 -0.293,-5.156 -0.72,-7.55 -0.161,-1.203 -0.444,-2.348 -0.712,-3.43 -0.227,-1.088 -0.594,-2.091 -0.893,-3.013 -0.27,-0.926 -0.673,-1.759 -0.979,-2.486 -0.293,-0.74 -0.621,-1.338 -0.907,-1.822 -0.557,-0.976 -0.905,-1.522 -0.905,-1.522 0,0 0.091,0.643 0.3,1.747 0.123,0.549 0.229,1.226 0.327,1.98 0.099,0.764 0.256,1.585 0.346,2.526 0.211,1.864 0.441,4.024 0.574,6.353 0.109,1.156 0.109,2.367 0.184,3.586 0.039,1.222 0.081,2.467 0.122,3.708 0.017,1.246 0.035,2.493 0.054,3.717 0.002,1.229 0.043,2.439 0.024,3.611 -0.016,2.354 -0.03,4.55 -0.041,6.431 -0.037,3.777 -0.124,6.355 -0.124,6.355 0,0 0.064,-0.146 0.187,-0.423 0.109,-0.279 0.326,-0.684 0.5,-1.218 0.384,-1.06 0.895,-2.604 1.299,-4.49 0.232,-0.941 0.419,-1.968 0.602,-3.059 0.158,-1.092 0.361,-2.245 0.45,-3.446 0.108,-1.201 0.244,-2.443 0.271,-3.709 0.078,-1.267 0.037,-2.557 0.041,-3.846 m -9.585,36.667 c -1.152,0.415 -2.452,0.886 -3.868,1.398 -1.438,0.463 -2.964,1.02 -4.611,1.532 -1.635,0.541 -3.379,1.057 -5.175,1.608 -1.783,0.59 -3.682,1.024 -5.558,1.624 -1.906,0.508 -3.824,1.084 -5.774,1.545 -3.861,1.075 -7.772,1.923 -11.432,2.781 -1.838,0.378 -3.615,0.746 -5.301,1.093 -1.693,0.281 -3.289,0.656 -4.774,0.861 -1.488,0.224 -2.852,0.488 -4.058,0.615 -1.211,0.132 -2.267,0.345 -3.157,0.388 -1.773,0.156 -2.787,0.275 -2.787,0.275 0,0 1.01,0.154 2.773,0.371 0.879,0.134 1.967,0.153 3.217,0.208 1.258,0.078 2.659,0.051 4.193,0 1.539,-0.006 3.188,-0.165 4.94,-0.312 1.747,-0.166 3.587,-0.392 5.479,-0.681 1.879,-0.345 3.851,-0.594 5.802,-1.061 1.968,-0.41 3.952,-0.877 5.93,-1.38 1.977,-0.499 3.92,-1.128 5.85,-1.678 1.912,-0.613 3.786,-1.242 5.574,-1.922 1.802,-0.638 3.512,-1.349 5.118,-2.055 1.626,-0.652 3.108,-1.425 4.486,-2.087 2.743,-1.373 4.918,-2.73 6.398,-3.727 1.447,-1.068 2.239,-1.694 2.239,-1.694 0,0 -0.947,0.398 -2.55,1.125 -0.819,0.324 -1.813,0.72 -2.954,1.173 m -14.698,-12.592 c -1.786,0.594 -3.868,1.289 -6.103,2.031 -1.11,0.379 -2.273,0.72 -3.44,1.095 -1.173,0.362 -2.362,0.731 -3.551,1.1 -1.194,0.346 -2.389,0.692 -3.564,1.033 -1.184,0.307 -2.331,0.683 -3.467,0.937 -2.253,0.595 -4.378,1.046 -6.217,1.421 -0.923,0.206 -1.753,0.311 -2.507,0.455 -0.749,0.14 -1.426,0.248 -1.986,0.3 -1.115,0.145 -1.753,0.258 -1.753,0.258 0,0 0.628,0.161 1.729,0.387 0.547,0.123 1.216,0.249 2.01,0.299 0.787,0.065 1.704,0.191 2.668,0.161 0.97,0 2.037,0.037 3.14,-0.086 1.114,-0.077 2.29,-0.166 3.482,-0.385 2.407,-0.334 4.926,-0.934 7.403,-1.652 1.224,-0.405 2.463,-0.767 3.642,-1.232 1.196,-0.42 2.335,-0.932 3.444,-1.406 1.115,-0.459 2.148,-1.006 3.137,-1.496 0.981,-0.512 1.898,-1.007 2.721,-1.52 1.668,-0.969 2.977,-1.933 3.867,-2.627 0.455,-0.33 0.771,-0.661 1.001,-0.853 0.225,-0.201 0.347,-0.308 0.347,-0.308 0,0 -2.424,0.882 -6.003,2.088 m -40.617,43.607 c 0.617,0.083 1.524,0.169 2.697,0.231 2.327,0.114 5.665,0.103 9.647,-0.213 1.991,-0.156 4.147,-0.355 6.411,-0.661 2.266,-0.297 4.659,-0.616 7.109,-1.071 4.916,-0.828 10.108,-1.984 15.26,-3.296 5.137,-1.376 10.243,-2.887 14.932,-4.618 2.356,-0.828 4.593,-1.744 6.702,-2.647 2.112,-0.895 4.07,-1.837 5.847,-2.771 1.779,-0.932 3.376,-1.851 4.735,-2.769 1.372,-0.88 2.496,-1.774 3.377,-2.552 0.457,-0.367 0.814,-0.757 1.127,-1.09 0.32,-0.321 0.579,-0.611 0.757,-0.872 0.378,-0.495 0.579,-0.76 0.579,-0.76 0,0 -0.246,0.222 -0.706,0.638 -0.446,0.424 -1.195,0.944 -2.149,1.564 -0.962,0.62 -2.177,1.293 -3.61,1.987 -1.419,0.712 -3.086,1.402 -4.897,2.152 -3.641,1.461 -7.986,2.931 -12.679,4.394 -2.341,0.749 -4.797,1.411 -7.274,2.147 -2.484,0.705 -5.016,1.4 -7.563,2.038 -2.535,0.688 -5.085,1.316 -7.598,1.921 -2.521,0.575 -4.989,1.208 -7.398,1.721 -4.808,1.068 -9.315,1.992 -13.197,2.694 -3.882,0.69 -7.137,1.169 -9.431,1.419 -1.141,0.101 -2.051,0.217 -2.673,0.238 -0.619,0.039 -0.95,0.062 -0.95,0.062 0,0 0.328,0.04 0.945,0.114 m 2.149,17.524 c 0.716,0.112 1.768,0.263 3.127,0.347 1.363,0.113 3.01,0.192 4.904,0.184 1.896,0.005 4.036,-0.046 6.36,-0.222 4.656,-0.305 10.061,-0.994 15.785,-2.068 2.855,-0.574 5.814,-1.142 8.777,-1.899 2.972,-0.72 5.964,-1.553 8.952,-2.409 2.969,-0.913 5.925,-1.872 8.807,-2.902 2.898,-0.987 5.678,-2.161 8.373,-3.274 5.365,-2.292 10.231,-4.805 14.189,-7.318 1.969,-1.273 3.727,-2.516 5.188,-3.753 0.739,-0.603 1.418,-1.185 1.996,-1.782 0.607,-0.56 1.109,-1.135 1.556,-1.657 0.468,-0.497 0.815,-1.009 1.112,-1.45 0.311,-0.429 0.555,-0.809 0.707,-1.146 0.332,-0.645 0.51,-0.989 0.51,-0.989 0,0 -0.229,0.31 -0.658,0.892 -0.196,0.3 -0.494,0.632 -0.863,1.001 -0.361,0.375 -0.755,0.814 -1.275,1.24 -0.497,0.446 -1.048,0.929 -1.707,1.392 -0.635,0.491 -1.34,0.996 -2.121,1.496 -1.54,1.032 -3.378,2.046 -5.385,3.132 -2.043,1.03 -4.271,2.115 -6.678,3.16 -2.397,1.068 -4.983,2.064 -7.648,3.116 -5.37,2.003 -11.162,3.995 -17.038,5.714 -2.931,0.881 -5.872,1.737 -8.792,2.483 -2.917,0.758 -5.792,1.498 -8.589,2.145 -2.805,0.611 -5.512,1.236 -8.098,1.73 -2.585,0.495 -5.035,0.945 -7.306,1.292 -2.272,0.347 -4.361,0.634 -6.219,0.833 -1.859,0.194 -3.487,0.35 -4.826,0.414 -1.338,0.08 -2.405,0.128 -3.13,0.124 -0.725,0.015 -1.111,0.021 -1.111,0.021 0,0 0.383,0.054 1.101,0.153 m 16.798,14.187 c 0.701,0.084 1.743,0.133 3.077,0.154 1.326,0 2.942,-0.033 4.785,-0.17 1.842,-0.14 3.921,-0.329 6.172,-0.644 4.508,-0.593 9.727,-1.555 15.254,-2.846 2.757,-0.665 5.61,-1.346 8.474,-2.172 2.865,-0.82 5.768,-1.68 8.65,-2.611 5.749,-1.904 11.438,-4.009 16.638,-6.328 2.616,-1.114 5.083,-2.346 7.403,-3.539 2.323,-1.202 4.469,-2.438 6.393,-3.672 1.931,-1.227 3.654,-2.431 5.081,-3.638 1.458,-1.158 2.614,-2.317 3.492,-3.327 0.468,-0.476 0.796,-0.991 1.097,-1.41 0.315,-0.412 0.545,-0.788 0.694,-1.117 0.327,-0.628 0.503,-0.963 0.503,-0.963 0,0 -0.227,0.301 -0.652,0.865 -0.193,0.292 -0.476,0.62 -0.846,0.969 -0.366,0.354 -0.739,0.794 -1.257,1.197 -0.977,0.857 -2.243,1.803 -3.767,2.777 -0.755,0.5 -1.577,0.998 -2.472,1.488 -0.871,0.518 -1.822,1.013 -2.809,1.534 -3.96,2.058 -8.756,4.133 -13.967,6.181 -2.596,1.05 -5.336,1.99 -8.092,3.018 -2.772,0.985 -5.602,1.955 -8.454,2.862 -2.834,0.955 -5.691,1.843 -8.514,2.686 -2.828,0.831 -5.6,1.682 -8.309,2.421 -5.408,1.501 -10.486,2.79 -14.869,3.785 -2.191,0.487 -4.206,0.907 -6,1.253 -1.797,0.317 -3.367,0.582 -4.669,0.754 -1.295,0.143 -2.321,0.296 -3.031,0.316 -0.706,0.045 -1.084,0.068 -1.084,0.068 0,0 0.376,0.039 1.079,0.109 m 22.561,7.615 c 0.618,0.085 1.532,0.167 2.713,0.228 2.344,0.1 5.707,0.069 9.713,-0.295 2.001,-0.187 4.169,-0.414 6.446,-0.761 2.279,-0.335 4.68,-0.711 7.138,-1.22 4.936,-0.942 10.134,-2.263 15.278,-3.779 5.125,-1.572 10.199,-3.354 14.814,-5.392 2.325,-0.976 4.507,-2.08 6.561,-3.146 2.043,-1.099 3.941,-2.203 5.617,-3.353 1.701,-1.101 3.159,-2.276 4.402,-3.367 1.246,-1.087 2.214,-2.168 2.956,-3.092 0.711,-0.952 1.22,-1.728 1.475,-2.311 0.278,-0.561 0.427,-0.86 0.427,-0.86 0,0 -0.2,0.266 -0.576,0.767 -0.342,0.517 -1.003,1.158 -1.806,1.964 -0.849,0.778 -1.933,1.647 -3.247,2.551 -1.325,0.884 -2.858,1.826 -4.6,2.741 -1.723,0.938 -3.668,1.822 -5.714,2.768 -2.074,0.894 -4.278,1.795 -6.583,2.677 -2.293,0.905 -4.724,1.688 -7.166,2.559 -2.458,0.824 -4.968,1.632 -7.502,2.369 -2.517,0.791 -5.06,1.501 -7.566,2.184 -2.517,0.653 -4.979,1.348 -7.388,1.919 -4.809,1.181 -9.328,2.174 -13.225,2.931 -3.895,0.738 -7.166,1.239 -9.476,1.499 -1.147,0.103 -2.061,0.225 -2.687,0.243 -0.625,0.041 -0.957,0.064 -0.957,0.064 0,0 0.331,0.039 0.953,0.112 m 104.092,20.502 c -4.125,4.135 -8.853,9.041 -13.816,14.397 -2.467,2.687 -5.048,5.442 -7.577,8.321 -2.528,2.884 -5.094,5.813 -7.662,8.745 -2.521,2.969 -5.012,5.966 -7.449,8.929 -2.444,2.959 -4.748,5.954 -6.989,8.844 -4.449,5.805 -8.408,11.385 -11.551,16.336 -3.176,4.933 -5.435,9.293 -6.854,12.405 -0.676,1.578 -1.161,2.83 -1.408,3.716 -0.271,0.872 -0.417,1.337 -0.417,1.337 0,0 0.204,-0.443 0.584,-1.273 0.339,-0.845 1.019,-2 1.808,-3.495 0.855,-1.461 1.912,-3.222 3.243,-5.173 1.32,-1.955 2.876,-4.114 4.591,-6.454 1.724,-2.338 3.654,-4.823 5.698,-7.45 2.086,-2.595 4.284,-5.332 6.562,-8.163 2.322,-2.795 4.724,-5.683 7.163,-8.62 2.452,-2.926 4.964,-5.881 7.5,-8.819 5.019,-5.917 10.134,-11.761 14.892,-17.27 4.775,-5.504 9.229,-10.641 13.049,-15.045 3.802,-4.427 6.968,-8.117 9.186,-10.697 2.202,-2.6 3.463,-4.084 3.463,-4.084 0,0 -1.454,1.301 -3.923,3.649 -2.443,2.372 -5.992,5.707 -10.093,9.864 m -29.742,14.045 c -0.441,-0.512 -1.208,-1.137 -2.232,-1.867 -1.039,-0.708 -2.356,-1.5 -3.951,-2.229 -1.583,-0.744 -3.418,-1.496 -5.468,-2.143 -2.039,-0.687 -4.286,-1.296 -6.679,-1.86 -2.396,-0.531 -4.934,-1.075 -7.579,-1.461 -2.642,-0.417 -5.38,-0.797 -8.172,-1.064 -2.793,-0.26 -5.632,-0.489 -8.474,-0.641 -2.845,-0.133 -5.692,-0.19 -8.493,-0.213 -2.8,-0.033 -5.557,0.071 -8.223,0.175 -5.33,0.242 -10.297,0.73 -14.523,1.39 -2.113,0.317 -4.039,0.704 -5.735,1.08 -1.699,0.379 -3.157,0.796 -4.351,1.161 -1.194,0.392 -2.11,0.723 -2.718,0.996 -0.611,0.259 -0.939,0.397 -0.939,0.397 0,0 0.346,-0.079 0.993,-0.23 0.644,-0.174 1.615,-0.309 2.813,-0.536 1.221,-0.188 2.702,-0.372 4.405,-0.562 1.704,-0.165 3.63,-0.313 5.732,-0.447 2.105,-0.115 4.385,-0.212 6.796,-0.281 2.413,-0.081 4.961,-0.071 7.592,-0.098 2.634,-0.019 5.354,0.06 8.117,0.103 2.762,0.062 5.571,0.157 8.37,0.325 2.803,0.117 5.603,0.301 8.357,0.523 2.746,0.261 5.459,0.442 8.064,0.772 5.219,0.59 10.06,1.348 14.144,2.278 2.044,0.46 3.894,0.969 5.507,1.496 1.614,0.535 2.987,1.093 4.085,1.629 1.072,0.568 1.943,1.017 2.446,1.439 0.535,0.395 0.819,0.606 0.819,0.606 0,0 -0.244,-0.258 -0.703,-0.738 m -106.179,6.713 c -1.39,0.404 -2.472,0.764 -3.179,1.067 -0.712,0.285 -1.095,0.439 -1.095,0.439 0,0 0.401,-0.093 1.15,-0.273 0.746,-0.204 1.861,-0.361 3.262,-0.604 2.822,-0.441 6.884,-0.84 11.765,-1.153 2.442,-0.16 5.092,-0.271 7.892,-0.388 2.801,-0.115 5.757,-0.153 8.814,-0.237 3.058,-0.059 6.219,-0.047 9.43,-0.059 3.209,-0.004 6.471,0.035 9.729,0.127 3.259,0.05 6.519,0.162 9.722,0.303 3.202,0.186 6.357,0.297 9.398,0.545 6.087,0.45 11.754,1.035 16.558,1.833 2.393,0.43 4.592,0.837 6.496,1.349 0.961,0.232 1.845,0.496 2.651,0.769 0.826,0.238 1.553,0.525 2.203,0.803 0.668,0.249 1.225,0.541 1.709,0.802 0.491,0.254 0.915,0.47 1.204,0.716 0.621,0.452 0.952,0.693 0.952,0.693 0,0 -0.292,-0.287 -0.841,-0.832 -0.261,-0.295 -0.648,-0.575 -1.105,-0.905 -0.448,-0.349 -0.985,-0.721 -1.63,-1.055 -0.63,-0.371 -1.339,-0.757 -2.145,-1.101 -0.789,-0.394 -1.67,-0.74 -2.622,-1.082 -1.894,-0.731 -4.079,-1.377 -6.488,-1.991 -2.409,-0.601 -5.039,-1.169 -7.842,-1.632 -2.8,-0.465 -5.76,-0.925 -8.835,-1.232 -6.146,-0.707 -12.731,-1.075 -19.314,-1.246 -3.293,-0.056 -6.585,-0.056 -9.824,-0.013 -3.239,0.024 -6.428,0.195 -9.509,0.341 -6.163,0.344 -11.905,0.912 -16.796,1.634 -4.895,0.7 -8.937,1.577 -11.71,2.382 m -7.618,20.165 c 0,0 0.374,-0.105 1.072,-0.302 0.691,-0.215 1.727,-0.476 3.029,-0.79 1.3,-0.325 2.906,-0.651 4.74,-1.001 1.837,-0.347 3.92,-0.679 6.195,-1.003 2.276,-0.326 4.75,-0.607 7.366,-0.883 2.618,-0.275 5.391,-0.462 8.252,-0.689 2.863,-0.191 5.829,-0.317 8.84,-0.436 3.011,-0.132 6.075,-0.165 9.136,-0.171 6.122,-0.06 12.242,0.169 17.963,0.531 2.854,0.234 5.619,0.438 8.221,0.764 2.609,0.302 5.054,0.697 7.31,1.089 2.233,0.457 4.288,0.895 6.06,1.438 0.894,0.253 1.715,0.529 2.462,0.814 0.768,0.253 1.435,0.557 2.04,0.84 0.619,0.256 1.126,0.563 1.58,0.819 0.459,0.244 0.838,0.476 1.114,0.704 0.58,0.433 0.89,0.663 0.89,0.663 0,0 -0.27,-0.276 -0.775,-0.797 -0.244,-0.279 -0.586,-0.57 -1.008,-0.891 -0.414,-0.338 -0.894,-0.728 -1.487,-1.066 -0.577,-0.37 -1.226,-0.773 -1.968,-1.136 -0.727,-0.403 -1.544,-0.763 -2.427,-1.128 -1.756,-0.761 -3.799,-1.439 -6.056,-2.086 -4.512,-1.258 -9.899,-2.253 -15.699,-2.892 -2.9,-0.284 -5.903,-0.6 -8.963,-0.707 -3.054,-0.15 -6.162,-0.21 -9.27,-0.225 -3.106,0.046 -6.213,0.117 -9.266,0.289 -3.055,0.135 -6.052,0.447 -8.949,0.727 -5.79,0.628 -11.165,1.537 -15.707,2.594 -2.275,0.506 -4.339,1.075 -6.152,1.63 -1.815,0.543 -3.369,1.096 -4.639,1.595 -1.279,0.476 -2.24,0.925 -2.895,1.238 -0.657,0.304 -1.009,0.468 -1.009,0.468 m 4.092,17.099 c 0.602,-0.16 1.506,-0.312 2.625,-0.546 2.267,-0.426 5.522,-0.911 9.438,-1.377 3.917,-0.45 8.498,-0.875 13.411,-1.246 2.454,-0.208 4.998,-0.316 7.577,-0.497 2.582,-0.152 5.204,-0.286 7.829,-0.363 2.624,-0.127 5.249,-0.195 7.832,-0.24 2.581,-0.017 5.123,-0.092 7.581,-0.055 4.915,0.041 9.503,0.188 13.409,0.528 1.95,0.195 3.745,0.37 5.31,0.641 1.572,0.25 2.931,0.542 4.03,0.855 1.094,0.318 1.962,0.599 2.51,0.875 0.56,0.266 0.86,0.408 0.86,0.408 0,0 -0.268,-0.196 -0.773,-0.561 -0.25,-0.197 -0.576,-0.4 -0.976,-0.614 -0.397,-0.227 -0.853,-0.499 -1.395,-0.718 -1.068,-0.488 -2.404,-1.019 -3.975,-1.462 -1.565,-0.484 -3.362,-0.903 -5.331,-1.28 -1.972,-0.377 -4.12,-0.715 -6.4,-0.955 -2.279,-0.254 -4.686,-0.481 -7.181,-0.593 -4.988,-0.297 -10.311,-0.263 -15.628,-0.09 -5.313,0.235 -10.615,0.635 -15.563,1.267 -2.475,0.277 -4.856,0.663 -7.112,1.034 -2.256,0.365 -4.377,0.799 -6.325,1.225 -3.904,0.852 -7.101,1.81 -9.297,2.595 -1.102,0.398 -1.947,0.742 -2.513,1.003 -0.567,0.251 -0.872,0.382 -0.872,0.382 0,0 0.322,-0.075 0.929,-0.216 m 12.284,15.334 c 0.867,-0.217 1.939,-0.32 3.137,-0.544 1.191,-0.225 2.571,-0.37 4.059,-0.587 1.482,-0.233 3.118,-0.335 4.823,-0.558 1.71,-0.156 3.519,-0.32 5.389,-0.489 3.746,-0.242 7.739,-0.563 11.744,-0.653 2.001,-0.123 4.003,-0.128 5.975,-0.195 1.971,0.029 3.915,-0.104 5.79,-0.056 1.88,0.008 3.696,-0.004 5.419,0.04 1.725,0.012 3.347,0.103 4.856,0.128 1.504,0.08 2.884,0.154 4.108,0.217 1.223,0.104 2.289,0.195 3.167,0.269 1.746,0.23 2.768,0.335 2.768,0.335 0,0 -0.941,-0.368 -2.634,-0.97 -1.706,-0.524 -4.185,-1.194 -7.207,-1.713 -1.51,-0.236 -3.15,-0.545 -4.894,-0.7 -1.745,-0.209 -3.587,-0.393 -5.497,-0.481 -1.907,-0.134 -3.882,-0.191 -5.892,-0.225 -2.005,0.032 -4.045,-0.004 -6.085,0.091 -2.035,0.09 -4.071,0.219 -6.072,0.395 -2.005,0.119 -3.962,0.452 -5.861,0.666 -1.896,0.275 -3.72,0.589 -5.441,0.937 -1.72,0.367 -3.345,0.693 -4.819,1.132 -1.483,0.397 -2.833,0.775 -4.014,1.215 -1.18,0.415 -2.216,0.752 -3.017,1.131 -1.626,0.719 -2.546,1.159 -2.546,1.159 0,0 1.004,-0.18 2.744,-0.544 m 12.944,14.534 c 0.55,-0.112 1.228,-0.203 1.987,-0.286 0.763,-0.082 1.587,-0.221 2.531,-0.291 1.868,-0.173 4.031,-0.356 6.362,-0.439 1.16,-0.089 2.369,-0.061 3.589,-0.109 1.224,-0.015 2.467,-0.03 3.711,-0.045 1.245,0.008 2.491,0.016 3.718,0.023 1.225,0.022 2.437,0.011 3.61,0.052 2.351,0.063 4.546,0.123 6.427,0.175 3.776,0.117 6.351,0.257 6.351,0.257 0,0 -0.146,-0.067 -0.421,-0.194 -0.275,-0.117 -0.673,-0.343 -1.206,-0.527 -1.052,-0.407 -2.583,-0.949 -4.461,-1.393 -0.936,-0.251 -1.959,-0.458 -3.046,-0.663 -1.088,-0.184 -2.238,-0.409 -3.436,-0.524 -1.198,-0.133 -2.437,-0.294 -3.702,-0.347 -1.263,-0.106 -2.555,-0.094 -3.843,-0.124 -2.578,0.029 -5.161,0.186 -7.564,0.563 -1.204,0.133 -2.356,0.392 -3.444,0.641 -1.092,0.202 -2.102,0.547 -3.03,0.826 -0.932,0.249 -1.771,0.637 -2.507,0.929 -0.747,0.275 -1.349,0.591 -1.84,0.865 -0.984,0.538 -1.541,0.872 -1.541,0.872 0,0 0.644,-0.076 1.755,-0.261 m 41.731,20.347 c 0.557,1.8 1.207,3.896 1.905,6.144 0.354,1.12 0.668,2.288 1.021,3.463 0.338,1.181 0.682,2.375 1.025,3.574 0.321,1.202 0.642,2.403 0.959,3.584 0.282,1.189 0.633,2.347 0.864,3.485 0.546,2.268 0.953,4.401 1.288,6.247 0.187,0.929 0.275,1.759 0.402,2.517 0.124,0.751 0.216,1.429 0.26,1.992 0.122,1.117 0.219,1.757 0.219,1.757 0,0 0.174,-0.623 0.425,-1.719 0.134,-0.547 0.274,-1.211 0.341,-2.005 0.082,-0.784 0.227,-1.699 0.217,-2.664 0.021,-0.97 0.08,-2.036 -0.02,-3.143 -0.054,-1.112 -0.117,-2.29 -0.311,-3.487 -0.284,-2.415 -0.831,-4.945 -1.499,-7.437 -0.376,-1.231 -0.713,-2.478 -1.152,-3.666 -0.395,-1.205 -0.883,-2.355 -1.334,-3.473 -0.434,-1.123 -0.963,-2.169 -1.432,-3.168 -0.49,-0.991 -0.966,-1.919 -1.46,-2.753 -0.934,-1.687 -1.869,-3.015 -2.545,-3.92 -0.323,-0.462 -0.645,-0.787 -0.831,-1.02 -0.198,-0.23 -0.303,-0.351 -0.303,-0.351 0,0 0.83,2.44 1.961,6.043 m 11.784,-17.408 c 0.308,0.827 0.682,1.83 1.114,2.98 0.39,1.159 0.834,2.468 1.316,3.895 0.431,1.447 0.957,2.985 1.434,4.642 0.506,1.647 0.984,3.401 1.498,5.207 0.553,1.795 0.949,3.704 1.51,5.592 0.467,1.917 1.001,3.848 1.423,5.805 0.99,3.885 1.758,7.813 2.537,11.488 0.341,1.846 0.671,3.631 0.985,5.324 0.244,1.7 0.581,3.302 0.758,4.792 0.194,1.491 0.428,2.858 0.529,4.067 0.106,1.213 0.3,2.275 0.323,3.168 0.118,1.774 0.217,2.789 0.217,2.789 0,0 0.175,-1.005 0.429,-2.764 0.151,-0.876 0.194,-1.962 0.276,-3.21 0.104,-1.257 0.106,-2.66 0.088,-4.193 0.024,-1.538 -0.1,-3.19 -0.209,-4.947 -0.13,-1.751 -0.319,-3.593 -0.566,-5.492 -0.306,-1.886 -0.514,-3.86 -0.939,-5.824 -0.37,-1.974 -0.792,-3.969 -1.255,-5.956 -0.46,-1.988 -1.046,-3.942 -1.555,-5.883 -0.574,-1.925 -1.161,-3.81 -1.805,-5.613 -0.601,-1.815 -1.274,-3.539 -1.945,-5.163 -0.62,-1.638 -1.359,-3.136 -1.992,-4.525 -1.317,-2.772 -2.628,-4.976 -3.594,-6.478 -1.037,-1.469 -1.647,-2.274 -1.647,-2.274 0,0 0.378,0.957 1.07,2.573 m 19.768,3.548 c 0.698,2.354 1.31,4.824 1.991,7.314 0.655,2.501 1.296,5.046 1.88,7.607 0.635,2.546 1.211,5.111 1.762,7.638 0.521,2.531 1.103,5.011 1.566,7.43 0.966,4.831 1.793,9.355 2.415,13.25 0.609,3.897 1.017,7.161 1.221,9.459 0.075,1.145 0.173,2.054 0.18,2.677 0.028,0.621 0.043,0.954 0.043,0.954 0,0 0.044,-0.329 0.132,-0.945 0.096,-0.613 0.202,-1.519 0.29,-2.688 0.162,-2.328 0.222,-5.665 -0.01,-9.654 -0.115,-1.991 -0.269,-4.15 -0.526,-6.422 -0.25,-2.27 -0.519,-4.669 -0.921,-7.128 -0.727,-4.933 -1.772,-10.149 -2.976,-15.328 -1.266,-5.164 -2.67,-10.3 -4.304,-15.025 -0.776,-2.372 -1.646,-4.63 -2.505,-6.756 -0.85,-2.13 -1.752,-4.109 -2.646,-5.903 -0.894,-1.798 -1.78,-3.415 -2.67,-4.79 -0.852,-1.394 -1.72,-2.538 -2.481,-3.434 -0.355,-0.463 -0.741,-0.831 -1.065,-1.149 -0.314,-0.327 -0.599,-0.59 -0.855,-0.774 -0.488,-0.389 -0.749,-0.595 -0.749,-0.595 0,0 0.216,0.251 0.625,0.721 0.413,0.453 0.916,1.212 1.52,2.178 0.597,0.975 1.244,2.205 1.908,3.651 0.682,1.436 1.338,3.117 2.05,4.941 1.382,3.67 2.758,8.047 4.125,12.771 m 15.195,-10.703 c 1.89,5.411 3.761,11.243 5.356,17.154 0.818,2.951 1.613,5.909 2.298,8.845 0.697,2.931 1.376,5.821 1.964,8.631 0.551,2.816 1.122,5.535 1.559,8.131 0.441,2.596 0.84,5.054 1.139,7.331 0.3,2.279 0.542,4.374 0.702,6.237 0.157,1.858 0.277,3.493 0.314,4.835 0.052,1.337 0.078,2.405 0.059,3.129 -0.002,0.725 -0.002,1.112 -0.002,1.112 0,0 0.059,-0.382 0.176,-1.097 0.124,-0.715 0.3,-1.761 0.41,-3.122 0.143,-1.357 0.255,-3.002 0.285,-4.897 0.048,-1.894 0.04,-4.036 -0.085,-6.363 -0.207,-4.659 -0.784,-10.078 -1.737,-15.826 -0.513,-2.866 -1.022,-5.836 -1.715,-8.813 -0.658,-2.985 -1.427,-5.997 -2.22,-9 -0.852,-2.988 -1.747,-5.964 -2.716,-8.869 -0.928,-2.915 -2.043,-5.72 -3.099,-8.438 -2.179,-5.412 -4.59,-10.329 -7.019,-14.339 -1.231,-1.998 -2.438,-3.779 -3.641,-5.268 -0.59,-0.751 -1.156,-1.441 -1.743,-2.031 -0.546,-0.62 -1.11,-1.133 -1.623,-1.59 -0.486,-0.479 -0.989,-0.837 -1.425,-1.145 -0.424,-0.319 -0.798,-0.571 -1.131,-0.728 -0.638,-0.346 -0.979,-0.533 -0.979,-0.533 0,0 0.305,0.237 0.879,0.679 0.295,0.203 0.619,0.506 0.981,0.884 0.366,0.366 0.799,0.772 1.213,1.3 0.436,0.505 0.906,1.065 1.358,1.737 0.477,0.642 0.965,1.358 1.447,2.151 1.001,1.56 1.978,3.421 3.022,5.447 0.986,2.066 2.024,4.315 3.018,6.745 1.017,2.418 1.96,5.025 2.955,7.711 m 17.66,2.183 c 0.897,2.854 1.726,5.73 2.511,8.571 0.771,2.841 1.561,5.632 2.245,8.353 1.388,5.441 2.57,10.545 3.474,14.947 0.438,2.202 0.816,4.225 1.123,6.027 0.28,1.801 0.514,3.377 0.659,4.681 0.114,1.299 0.245,2.329 0.252,3.04 0.028,0.707 0.044,1.083 0.044,1.083 0,0 0.045,-0.373 0.132,-1.077 0.099,-0.699 0.17,-1.74 0.216,-3.071 0.03,-1.327 0.03,-2.941 -0.066,-4.789 -0.103,-1.844 -0.248,-3.926 -0.517,-6.184 -0.496,-4.518 -1.348,-9.755 -2.522,-15.308 -0.609,-2.771 -1.23,-5.64 -2,-8.52 -0.757,-2.88 -1.555,-5.802 -2.426,-8.702 -1.783,-5.787 -3.766,-11.519 -5.977,-16.765 -1.059,-2.64 -2.24,-5.132 -3.383,-7.48 -1.153,-2.346 -2.342,-4.515 -3.536,-6.469 -1.187,-1.954 -2.354,-3.701 -3.53,-5.153 -1.129,-1.481 -2.264,-2.663 -3.255,-3.563 -0.465,-0.476 -0.974,-0.813 -1.385,-1.126 -0.406,-0.324 -0.776,-0.559 -1.104,-0.718 -0.62,-0.338 -0.951,-0.52 -0.951,-0.52 0,0 0.297,0.233 0.853,0.667 0.288,0.201 0.607,0.491 0.949,0.87 0.346,0.375 0.778,0.754 1.17,1.28 0.837,0.996 1.757,2.281 2.697,3.826 0.487,0.763 0.966,1.598 1.437,2.499 0.5,0.884 0.974,1.846 1.474,2.842 1.975,4.003 3.949,8.843 5.887,14.094 0.995,2.617 1.879,5.376 2.847,8.155 0.926,2.79 1.837,5.641 2.682,8.51 m 11.704,-16.943 c 0.833,2.557 1.587,5.139 2.31,7.688 0.697,2.552 1.427,5.057 2.034,7.504 0.609,2.448 1.214,4.813 1.723,7.069 0.508,2.257 0.967,4.395 1.369,6.376 0.368,1.984 0.706,3.805 0.958,5.429 0.245,1.623 0.432,3.044 0.562,4.219 0.09,1.17 0.205,2.101 0.212,2.741 0.029,0.635 0.045,0.976 0.045,0.976 0,0 0.043,-0.338 0.13,-0.97 0.099,-0.628 0.187,-1.561 0.257,-2.762 0.119,-2.388 0.084,-5.821 -0.317,-9.9 -0.205,-2.039 -0.451,-4.247 -0.83,-6.565 -0.357,-2.318 -0.774,-4.76 -1.315,-7.26 -0.532,-2.503 -1.094,-5.09 -1.788,-7.685 -0.698,-2.595 -1.425,-5.227 -2.236,-7.835 -0.823,-2.605 -1.727,-5.183 -2.647,-7.712 -0.925,-2.528 -1.947,-4.973 -2.989,-7.321 -1.013,-2.359 -2.148,-4.575 -3.244,-6.661 -1.128,-2.075 -2.257,-4.002 -3.425,-5.708 -1.119,-1.731 -2.307,-3.224 -3.406,-4.496 -1.096,-1.274 -2.181,-2.278 -3.109,-3.046 -0.954,-0.743 -1.735,-1.277 -2.321,-1.55 -0.566,-0.295 -0.867,-0.453 -0.867,-0.453 0,0 0.267,0.21 0.77,0.601 0.52,0.355 1.164,1.042 1.973,1.874 0.78,0.875 1.653,1.993 2.566,3.338 0.897,1.357 1.852,2.924 2.787,4.698 1.893,3.536 3.799,7.824 5.622,12.512 0.944,2.332 1.768,4.8 2.678,7.28 0.868,2.497 1.716,5.048 2.498,7.619 M 472.877,336.204 c -8.751,18.338 -22.484,26.881 -43.223,26.881 -15.908,0 -33.101,-4.864 -49.731,-9.668 -14.071,-4.066 -27.364,-7.804 -37.897,-7.804 h -0.006 c -7.213,0 -12.627,1.686 -16.552,5.359 -3.04,2.847 -6.125,6.765 -2.98,12.257 4.621,8.078 15.478,8.987 23.241,8.987 7.705,0 16.813,-1.548 26.459,-2.653 11.453,-1.313 23.295,-3.174 35.145,-3.174 h 0.009 c 33.615,0 53.7,12.58 63.214,38.536 12.339,33.675 -5.807,45.087 -28.782,59.226 -8.424,5.183 -17.136,10.668 -25.199,17.6 -5.992,5.152 -11.44,10.153 -16.247,14.511 -18.328,16.61 -30.437,27.613 -46.593,27.613 -4.886,0 -10.103,-0.954 -15.953,-2.949 -18.377,-6.27 -28.845,-18.376 -31.991,-37.018 -1.507,-10.414 -1.089,-19.785 -0.108,-30.375 0.846,-7.836 2.13,-15.73 3.371,-23.372 3.772,-23.209 7.032,-43.257 -2.746,-53.73 -0.807,-0.864 -1.364,-1.618 -1.813,-2.225 -0.895,-1.215 -1.912,-2.592 -3.863,-2.592 -1.54,0 -2.893,0.843 -5.619,2.768 -10.855,7.666 -6.2,26.513 -0.81,48.336 2.475,10.017 5.033,20.373 6.545,30.904 2.378,15.485 1.504,23.139 0.073,30.239 -3.582,18.715 -15.325,31.701 -35.89,39.693 -8.056,3.132 -15.128,4.654 -21.616,4.654 -19.835,0 -30.997,-14.792 -43.921,-31.917 -5.404,-7.162 -10.993,-14.567 -17.631,-21.476 -5.474,-5.701 -10.705,-10.869 -15.32,-15.427 -23.55,-23.274 -35.369,-34.968 -28.027,-61.116 7.261,-25.872 25.528,-37.423 59.221,-37.423 h 0.009 c 10.917,0 22.161,1.136 33.032,2.222 9.938,0.994 19.321,1.935 27.671,1.935 11.521,0 19.367,-1.853 24.685,-5.843 1.599,-1.198 2.57,-2.8 2.805,-4.634 0.414,-3.214 -1.52,-6.209 -2.709,-7.707 -3.207,-4.036 -8.21,-5.998 -15.303,-5.998 -8.938,0 -20.125,3.006 -33.076,6.49 -15.331,4.123 -32.706,8.798 -48.915,8.798 -25.574,0 -42.234,-11.492 -52.425,-36.166 -14.239,-34.471 3.468,-48.425 25.884,-66.092 7.048,-5.555 14.333,-11.296 21.103,-18.081 5.582,-5.594 10.641,-10.932 15.102,-15.641 18.409,-19.431 29.522,-31.158 47.276,-31.157 4.067,0 8.393,0.606 13.223,1.853 41.392,10.687 37.724,51.738 34.491,87.957 -2.174,24.331 -4.05,45.342 8.121,53.936 1.637,1.156 3.308,1.873 5.058,2.212 0.171,-1.559 0.377,-3.171 0.55,-4.884 0.344,-3.389 0.695,-7.068 1.013,-10.996 0.021,-0.226 0.044,-0.468 0.064,-0.699 0.13,-1.58 0.257,-3.208 0.376,-4.865 1.464,-20.314 2.101,-46.061 0.057,-71.444 -0.23,-2.583 -0.479,-5.16 -0.747,-7.728 -0.447,-4.32 -0.955,-8.61 -1.593,-12.824 -0.498,-3.359 -0.994,-6.688 -1.645,-9.934 -0.266,-1.552 -0.56,-3.084 -0.871,-4.604 -0.344,-1.68 -0.708,-3.342 -1.093,-4.977 -1.383,-6.252 -3.052,-12.173 -4.842,-17.659 -1.797,-5.49 -3.755,-10.536 -5.803,-15.022 -0.931,-2.299 -2.085,-4.337 -3.09,-6.319 -0.509,-0.986 -1.005,-1.947 -1.488,-2.877 -0.541,-0.889 -1.07,-1.75 -1.579,-2.583 -1.937,-3.417 -3.966,-6.082 -5.571,-8.306 -1.577,-2.258 -3.118,-3.72 -4.009,-4.861 -0.938,-1.1 -1.437,-1.685 -1.437,-1.685 l 3.556,-2.976 14.167,-11.858 c 0,0 0.571,0.818 1.64,2.351 0.045,0.069 0.108,0.153 0.153,0.223 1.025,1.542 2.679,3.619 4.294,6.477 1.726,2.974 3.859,6.553 5.763,10.849 0.504,1.064 1.022,2.16 1.556,3.289 0.456,1.148 0.924,2.332 1.404,3.542 0.94,2.432 2.015,4.961 2.815,7.672 1.809,5.368 3.415,11.241 4.766,17.462 1.349,6.224 2.486,12.803 3.273,19.602 0.44,3.395 0.796,6.849 1.038,10.342 0.33,3.492 0.494,7.024 0.655,10.578 0.337,7.109 0.337,14.308 0.239,21.485 -0.312,14.175 -1.426,28.225 -2.942,41.337 -1.419,12.281 -3.193,23.724 -4.996,33.677 -0.046,0.254 -0.093,0.503 -0.138,0.754 -0.126,0.687 -0.251,1.388 -0.377,2.059 -0.093,0.498 -0.183,0.971 -0.275,1.461 -0.613,3.265 -1.22,6.355 -1.807,9.219 -0.355,1.732 -0.7,3.37 -1.038,4.943 -1.974,9.19 -3.631,15.528 -4.269,17.89 0.148,-0.657 0.308,-1.607 0.375,-2.854 -0.227,1.573 -0.401,2.686 -0.5,3.31 0.036,-0.13 0.08,-0.283 0.125,-0.456 -0.051,0.232 -0.103,0.43 -0.145,0.584 -0.045,0.289 -0.074,0.457 -0.074,0.457 0,0 1.953,-7.124 4.488,-18.931 0.078,0 0.155,0.016 0.235,0.016 2.945,0 5.912,-1.049 8.426,-2.08 12.463,-5.094 11.134,-23.7 9.448,-47.254 -2.682,-37.51 -6.022,-84.193 45.768,-94.653 5.085,-1.028 9.84,-1.548 14.138,-1.548 25.421,0 34.857,18.349 45.785,39.594 4.102,7.979 8.346,16.231 13.71,24.172 4.424,6.549 8.694,12.535 12.463,17.814 19.234,26.949 28.887,40.475 17.197,64.989"
           style="fill:#34b659;fill-opacity:1;fill-rule:nonzero;stroke:none"
           id="path6249"
           inkscape:connector-curvature="0" /><path
           d="m 319.619,296.525 c -1.127,7.633 -2.307,14.524 -3.41,20.413 -0.158,0.856 -0.315,1.683 -0.474,2.513 0.956,-0.109 2.031,-0.364 3.283,-0.78 1.199,-5.761 1.095,-13.478 0.601,-22.146 m 22.403,53.243 c -2.362,0 -4.457,0.501 -6.327,0.937 3.109,3.802 8.98,5.688 18.701,5.688 4.641,0 9.875,-0.639 15.457,-1.204 -10.439,-2.912 -20.104,-5.421 -27.827,-5.421 z m -39.293,30.009 c -0.633,-0.68 -1.131,-1.289 -1.542,-1.823 -0.236,8.376 2.571,19.773 5.648,32.225 0.046,0.19 0.091,0.382 0.137,0.569 1.573,-13.471 1.411,-24.914 -4.243,-30.971 m -34.904,-34.054 c -4.996,0 -11.143,1.126 -17.878,2.724 6.056,0.54 11.805,0.93 17.069,0.93 4.215,0 7.851,-0.265 11.013,-0.787 -2.271,-1.939 -5.558,-2.867 -10.204,-2.867 m 217.401,-19.316 c -2.478,5.195 -5.386,9.664 -8.716,13.458 -4.774,9.413 -10.976,16.425 -18.71,21.086 10.32,5.98 19.467,15.71 25.254,31.502 8.261,22.541 3.812,35.973 -6.286,46.34 -5.499,13.192 -18.731,21.346 -32.425,29.772 -8.264,5.085 -16.806,10.343 -24.572,17.022 -5.944,5.112 -11.368,10.026 -16.155,14.365 -19.171,17.374 -31.835,28.854 -49.881,28.854 -5.432,0 -11.168,-1.057 -17.535,-3.228 -16.453,-5.615 -27.135,-15.51 -32.425,-30.064 -0.845,1.119 -1.723,2.216 -2.67,3.27 -6.262,13.142 -17.615,22.814 -34.4,29.337 -8.632,3.354 -16.283,4.986 -23.39,4.986 -22.274,0 -34.69,-16.449 -47.833,-33.867 -5.315,-7.045 -10.814,-14.332 -17.253,-21.033 -5.431,-5.652 -10.635,-10.796 -15.23,-15.335 -23.336,-23.064 -37.422,-36.983 -29.301,-65.911 3.427,-12.202 9.156,-20.795 16.096,-26.863 3.401,-5.53 7.499,-9.846 12.02,-13.215 -14.706,-5.684 -25.584,-17.284 -32.93,-35.067 -11.399,-27.591 -3.409,-43.824 10.317,-57.345 6.077,-9.478 15.824,-17.176 26.233,-25.378 6.952,-5.48 14.143,-11.147 20.741,-17.759 5.544,-5.555 10.582,-10.872 15.026,-15.564 18.507,-19.532 30.731,-32.434 50.241,-32.431 4.416,0 9.076,0.647 14.243,1.982 19.994,5.162 30.24,16.962 35.188,31.634 0.311,1.52 0.603,3.052 0.873,4.604 0.647,3.246 1.145,6.575 1.644,9.934 0.637,4.214 1.145,8.504 1.594,12.824 0.204,11.135 -0.805,22.592 -1.76,33.277 -1.739,19.45 -3.247,36.631 2.453,45.895 -0.118,1.657 -0.243,3.285 -0.373,4.865 -0.02,0.231 -0.035,0.473 -0.054,0.699 -0.319,3.928 -0.657,7.607 -0.997,10.996 -0.174,1.715 -0.346,3.336 -0.519,4.898 -1.772,-0.331 -3.467,-1.054 -5.124,-2.226 -12.17,-8.594 -10.296,-29.605 -8.12,-53.936 3.233,-36.219 6.901,-77.27 -34.492,-87.957 -4.829,-1.247 -9.155,-1.853 -13.224,-1.853 -17.752,-0.001 -28.862,11.726 -47.274,31.157 -4.462,4.709 -9.52,10.047 -15.104,15.641 -6.768,6.785 -14.055,12.526 -21.102,18.081 -22.415,17.667 -40.122,31.621 -25.883,66.094 10.191,24.672 26.851,36.164 52.427,36.164 16.207,0 33.582,-4.673 48.913,-8.797 12.953,-3.482 24.139,-6.491 33.074,-6.491 7.093,0 12.099,1.962 15.305,5.998 1.189,1.498 3.125,4.493 2.709,7.709 -0.235,1.834 -1.206,3.437 -2.806,4.638 -5.317,3.987 -13.163,5.846 -24.684,5.846 -8.351,0 -17.735,-0.95 -27.671,-1.944 -10.871,-1.086 -22.115,-2.222 -33.033,-2.222 h -0.008 c -33.694,0 -51.96,11.551 -59.222,37.423 -7.341,26.148 4.48,37.834 28.029,61.108 4.614,4.559 9.843,9.732 15.319,15.429 6.641,6.914 12.227,14.318 17.631,21.481 12.924,17.125 24.086,31.918 43.921,31.918 6.488,0 13.56,-1.524 21.616,-4.655 20.565,-7.993 32.308,-20.979 35.89,-39.692 -1.325,-8.493 -1.351,-18.122 -0.074,-30.239 -1.511,-10.531 -4.068,-20.887 -6.546,-30.904 -5.388,-21.823 -10.044,-40.671 0.812,-48.336 2.726,-1.923 4.082,-2.768 5.619,-2.768 1.951,0 2.968,1.377 3.863,2.592 0.449,0.607 1.009,1.364 1.816,2.228 9.775,10.47 6.515,30.518 2.743,53.729 -1.241,7.641 -2.525,15.539 -3.371,23.374 1.626,11.679 1.663,21.626 0.111,30.378 3.143,18.644 13.611,30.756 31.988,37.026 5.85,1.995 11.068,2.966 15.953,2.966 16.156,0 28.265,-10.974 46.593,-27.586 4.807,-4.357 10.256,-9.297 16.247,-14.449 8.063,-6.931 16.775,-12.294 25.199,-17.477 22.975,-14.139 41.122,-25.795 28.782,-59.47 -9.513,-25.956 -29.599,-38.536 -63.214,-38.536 h -0.009 c -11.85,0 -23.692,1.847 -35.145,3.163 -9.646,1.106 -18.754,2.395 -26.459,2.395 -7.763,0 -18.62,-0.813 -23.241,-8.888 -3.145,-5.492 -0.06,-9.304 2.98,-12.149 3.925,-3.672 9.339,-5.297 16.553,-5.297 h 0.005 c 10.533,0 23.826,3.738 37.897,7.804 16.63,4.804 33.823,9.718 49.731,9.718 20.739,0 34.472,-8.568 43.223,-26.907 11.69,-24.511 2.037,-38.05 -17.197,-64.999 -3.769,-5.28 -8.039,-11.273 -12.463,-17.821 -5.364,-7.943 -9.608,-16.196 -13.71,-24.176 -10.928,-21.245 -20.364,-39.594 -45.785,-39.594 -4.298,0 -9.053,0.517 -14.138,1.545 -51.79,10.46 -48.45,57.143 -45.768,94.653 1.686,23.554 3.015,42.16 -9.448,47.254 -2.514,1.031 -5.481,2.08 -8.426,2.08 -0.081,0 -0.154,-0.016 -0.235,-0.016 0.338,-1.573 0.683,-3.211 1.038,-4.943 0.587,-2.864 1.194,-5.954 1.807,-9.219 0.092,-0.49 0.182,-0.963 0.275,-1.461 0.126,-0.671 0.251,-1.372 0.377,-2.059 0.023,0.02 0.045,0.039 0.069,0.06 0.023,-0.274 0.047,-0.54 0.069,-0.814 1.804,-9.953 3.577,-21.396 4.995,-33.677 1.517,-13.112 2.631,-27.162 2.943,-41.337 0.099,-7.177 0.099,-14.376 -0.239,-21.485 -0.161,-3.554 -0.325,-7.086 -0.655,-10.578 -0.242,-3.493 -0.598,-6.947 -1.038,-10.342 -0.787,-6.799 -1.924,-13.378 -3.273,-19.602 -1.351,-6.221 -2.957,-12.094 -4.766,-17.462 -0.8,-2.711 -1.875,-5.24 -2.815,-7.672 -0.48,-1.21 -0.948,-2.394 -1.406,-3.542 -0.532,-1.129 -1.05,-2.225 -1.556,-3.289 -1.904,-4.296 -4.035,-7.875 -5.761,-10.849 -1.615,-2.858 -3.269,-4.935 -4.294,-6.477 -0.045,-0.07 -0.108,-0.154 -0.154,-0.223 -1.068,-1.533 -1.639,-2.351 -1.639,-2.351 l -14.167,11.858 -0.091,-0.106 20.352,-17.036 2.695,3.859 c 0.318,0.491 0.712,1.042 1.152,1.663 0.966,1.35 2.164,3.032 3.336,5.105 l 0.397,0.685 c 1.626,2.792 3.65,6.268 5.429,10.285 l 1.598,3.384 2.048,5.189 c 0.776,1.961 1.578,3.99 2.2,6.109 1.841,5.451 3.459,11.386 4.817,17.636 1.441,6.648 2.551,13.297 3.293,19.734 0.463,3.565 0.817,7.078 1.046,10.402 0.346,3.65 0.513,7.373 0.66,10.653 0.029,0.612 0.05,1.224 0.076,1.837 3.037,-6.896 7.334,-13.163 13.297,-18.436 7.427,-11.816 19.681,-21 39.621,-25.029 5.349,-1.079 10.376,-1.627 14.944,-1.627 27.916,0.003 38.36,20.312 49.418,41.813 4.049,7.873 8.234,16.012 13.464,23.753 4.392,6.505 8.648,12.468 12.402,17.729 18.885,26.458 30.285,42.43 17.555,69.115"
           style="fill:#231f20;fill-opacity:1;fill-rule:nonzero;stroke:none"
           id="path6251"
           inkscape:connector-curvature="0" /></g></g></g></svg>